G75*
%MOIN*%
%OFA0B0*%
%FSLAX25Y25*%
%IPPOS*%
%LPD*%
%AMOC8*
5,1,8,0,0,1.08239X$1,22.5*
%
%ADD10C,0.00000*%
D10*
X0013346Y0011228D02*
X0013346Y0035400D01*
X0015046Y0037100D01*
X0015046Y0053700D01*
X0013346Y0055400D01*
X0013346Y0079572D01*
X0013347Y0079572D02*
X0013349Y0079737D01*
X0013355Y0079902D01*
X0013365Y0080067D01*
X0013379Y0080231D01*
X0013397Y0080395D01*
X0013419Y0080559D01*
X0013444Y0080722D01*
X0013474Y0080884D01*
X0013508Y0081045D01*
X0013545Y0081206D01*
X0013587Y0081366D01*
X0013632Y0081524D01*
X0013681Y0081682D01*
X0013734Y0081838D01*
X0013791Y0081993D01*
X0013851Y0082147D01*
X0013915Y0082299D01*
X0013983Y0082449D01*
X0014054Y0082598D01*
X0014129Y0082745D01*
X0014208Y0082890D01*
X0014289Y0083034D01*
X0014375Y0083175D01*
X0014464Y0083314D01*
X0014556Y0083451D01*
X0014651Y0083585D01*
X0014750Y0083718D01*
X0014851Y0083848D01*
X0014956Y0083975D01*
X0015064Y0084100D01*
X0015175Y0084222D01*
X0015289Y0084341D01*
X0015406Y0084458D01*
X0015525Y0084572D01*
X0015647Y0084683D01*
X0015772Y0084791D01*
X0015899Y0084896D01*
X0016029Y0084997D01*
X0016162Y0085096D01*
X0016296Y0085191D01*
X0016433Y0085283D01*
X0016572Y0085372D01*
X0016713Y0085458D01*
X0016857Y0085539D01*
X0017002Y0085618D01*
X0017149Y0085693D01*
X0017298Y0085764D01*
X0017448Y0085832D01*
X0017600Y0085896D01*
X0017754Y0085956D01*
X0017909Y0086013D01*
X0018065Y0086066D01*
X0018223Y0086115D01*
X0018381Y0086160D01*
X0018541Y0086202D01*
X0018702Y0086239D01*
X0018863Y0086273D01*
X0019025Y0086303D01*
X0019188Y0086328D01*
X0019352Y0086350D01*
X0019516Y0086368D01*
X0019680Y0086382D01*
X0019845Y0086392D01*
X0020010Y0086398D01*
X0020175Y0086400D01*
X0163518Y0086400D01*
X0163683Y0086398D01*
X0163848Y0086392D01*
X0164013Y0086382D01*
X0164177Y0086368D01*
X0164341Y0086350D01*
X0164505Y0086328D01*
X0164668Y0086303D01*
X0164830Y0086273D01*
X0164991Y0086239D01*
X0165152Y0086202D01*
X0165312Y0086160D01*
X0165470Y0086115D01*
X0165628Y0086066D01*
X0165784Y0086013D01*
X0165939Y0085956D01*
X0166093Y0085896D01*
X0166245Y0085832D01*
X0166395Y0085764D01*
X0166544Y0085693D01*
X0166691Y0085618D01*
X0166836Y0085539D01*
X0166980Y0085458D01*
X0167121Y0085372D01*
X0167260Y0085283D01*
X0167397Y0085191D01*
X0167531Y0085096D01*
X0167664Y0084997D01*
X0167794Y0084896D01*
X0167921Y0084791D01*
X0168046Y0084683D01*
X0168168Y0084572D01*
X0168287Y0084458D01*
X0168404Y0084341D01*
X0168518Y0084222D01*
X0168629Y0084100D01*
X0168737Y0083975D01*
X0168842Y0083848D01*
X0168943Y0083718D01*
X0169042Y0083585D01*
X0169137Y0083451D01*
X0169229Y0083314D01*
X0169318Y0083175D01*
X0169404Y0083034D01*
X0169485Y0082890D01*
X0169564Y0082745D01*
X0169639Y0082598D01*
X0169710Y0082449D01*
X0169778Y0082299D01*
X0169842Y0082147D01*
X0169902Y0081993D01*
X0169959Y0081838D01*
X0170012Y0081682D01*
X0170061Y0081524D01*
X0170106Y0081366D01*
X0170148Y0081206D01*
X0170185Y0081045D01*
X0170219Y0080884D01*
X0170249Y0080722D01*
X0170274Y0080559D01*
X0170296Y0080395D01*
X0170314Y0080231D01*
X0170328Y0080067D01*
X0170338Y0079902D01*
X0170344Y0079737D01*
X0170346Y0079572D01*
X0170346Y0011228D01*
X0170344Y0011063D01*
X0170338Y0010898D01*
X0170328Y0010733D01*
X0170314Y0010569D01*
X0170296Y0010405D01*
X0170274Y0010241D01*
X0170249Y0010078D01*
X0170219Y0009916D01*
X0170185Y0009755D01*
X0170148Y0009594D01*
X0170106Y0009434D01*
X0170061Y0009276D01*
X0170012Y0009118D01*
X0169959Y0008962D01*
X0169902Y0008807D01*
X0169842Y0008653D01*
X0169778Y0008501D01*
X0169710Y0008351D01*
X0169639Y0008202D01*
X0169564Y0008055D01*
X0169485Y0007910D01*
X0169404Y0007766D01*
X0169318Y0007625D01*
X0169229Y0007486D01*
X0169137Y0007349D01*
X0169042Y0007215D01*
X0168943Y0007082D01*
X0168842Y0006952D01*
X0168737Y0006825D01*
X0168629Y0006700D01*
X0168518Y0006578D01*
X0168404Y0006459D01*
X0168287Y0006342D01*
X0168168Y0006228D01*
X0168046Y0006117D01*
X0167921Y0006009D01*
X0167794Y0005904D01*
X0167664Y0005803D01*
X0167531Y0005704D01*
X0167397Y0005609D01*
X0167260Y0005517D01*
X0167121Y0005428D01*
X0166980Y0005342D01*
X0166836Y0005261D01*
X0166691Y0005182D01*
X0166544Y0005107D01*
X0166395Y0005036D01*
X0166245Y0004968D01*
X0166093Y0004904D01*
X0165939Y0004844D01*
X0165784Y0004787D01*
X0165628Y0004734D01*
X0165470Y0004685D01*
X0165312Y0004640D01*
X0165152Y0004598D01*
X0164991Y0004561D01*
X0164830Y0004527D01*
X0164668Y0004497D01*
X0164505Y0004472D01*
X0164341Y0004450D01*
X0164177Y0004432D01*
X0164013Y0004418D01*
X0163848Y0004408D01*
X0163683Y0004402D01*
X0163518Y0004400D01*
X0020175Y0004400D01*
X0020010Y0004402D01*
X0019845Y0004408D01*
X0019680Y0004418D01*
X0019516Y0004432D01*
X0019352Y0004450D01*
X0019188Y0004472D01*
X0019025Y0004497D01*
X0018863Y0004527D01*
X0018702Y0004561D01*
X0018541Y0004598D01*
X0018381Y0004640D01*
X0018223Y0004685D01*
X0018065Y0004734D01*
X0017909Y0004787D01*
X0017754Y0004844D01*
X0017600Y0004904D01*
X0017448Y0004968D01*
X0017298Y0005036D01*
X0017149Y0005107D01*
X0017002Y0005182D01*
X0016857Y0005261D01*
X0016713Y0005342D01*
X0016572Y0005428D01*
X0016433Y0005517D01*
X0016296Y0005609D01*
X0016162Y0005704D01*
X0016029Y0005803D01*
X0015899Y0005904D01*
X0015772Y0006009D01*
X0015647Y0006117D01*
X0015525Y0006228D01*
X0015406Y0006342D01*
X0015289Y0006459D01*
X0015175Y0006578D01*
X0015064Y0006700D01*
X0014956Y0006825D01*
X0014851Y0006952D01*
X0014750Y0007082D01*
X0014651Y0007215D01*
X0014556Y0007349D01*
X0014464Y0007486D01*
X0014375Y0007625D01*
X0014289Y0007766D01*
X0014208Y0007910D01*
X0014129Y0008055D01*
X0014054Y0008202D01*
X0013983Y0008351D01*
X0013915Y0008501D01*
X0013851Y0008653D01*
X0013791Y0008807D01*
X0013734Y0008962D01*
X0013681Y0009118D01*
X0013632Y0009276D01*
X0013587Y0009434D01*
X0013545Y0009594D01*
X0013508Y0009755D01*
X0013474Y0009916D01*
X0013444Y0010078D01*
X0013419Y0010241D01*
X0013397Y0010405D01*
X0013379Y0010569D01*
X0013365Y0010733D01*
X0013355Y0010898D01*
X0013349Y0011063D01*
X0013347Y0011228D01*
X0016346Y0012400D02*
X0016348Y0012541D01*
X0016354Y0012682D01*
X0016364Y0012822D01*
X0016378Y0012962D01*
X0016396Y0013102D01*
X0016417Y0013241D01*
X0016443Y0013380D01*
X0016472Y0013518D01*
X0016506Y0013654D01*
X0016543Y0013790D01*
X0016584Y0013925D01*
X0016629Y0014059D01*
X0016678Y0014191D01*
X0016730Y0014322D01*
X0016786Y0014451D01*
X0016846Y0014578D01*
X0016909Y0014704D01*
X0016975Y0014828D01*
X0017046Y0014951D01*
X0017119Y0015071D01*
X0017196Y0015189D01*
X0017276Y0015305D01*
X0017360Y0015418D01*
X0017446Y0015529D01*
X0017536Y0015638D01*
X0017629Y0015744D01*
X0017724Y0015847D01*
X0017823Y0015948D01*
X0017924Y0016046D01*
X0018028Y0016141D01*
X0018135Y0016233D01*
X0018244Y0016322D01*
X0018356Y0016407D01*
X0018470Y0016490D01*
X0018586Y0016570D01*
X0018705Y0016646D01*
X0018826Y0016718D01*
X0018948Y0016788D01*
X0019073Y0016853D01*
X0019199Y0016916D01*
X0019327Y0016974D01*
X0019457Y0017029D01*
X0019588Y0017081D01*
X0019721Y0017128D01*
X0019855Y0017172D01*
X0019990Y0017213D01*
X0020126Y0017249D01*
X0020263Y0017281D01*
X0020401Y0017310D01*
X0020539Y0017335D01*
X0020679Y0017355D01*
X0020819Y0017372D01*
X0020959Y0017385D01*
X0021100Y0017394D01*
X0021240Y0017399D01*
X0021381Y0017400D01*
X0021522Y0017397D01*
X0021663Y0017390D01*
X0021803Y0017379D01*
X0021943Y0017364D01*
X0022083Y0017345D01*
X0022222Y0017323D01*
X0022360Y0017296D01*
X0022498Y0017266D01*
X0022634Y0017231D01*
X0022770Y0017193D01*
X0022904Y0017151D01*
X0023038Y0017105D01*
X0023170Y0017056D01*
X0023300Y0017002D01*
X0023429Y0016945D01*
X0023556Y0016885D01*
X0023682Y0016821D01*
X0023805Y0016753D01*
X0023927Y0016682D01*
X0024047Y0016608D01*
X0024164Y0016530D01*
X0024279Y0016449D01*
X0024392Y0016365D01*
X0024503Y0016278D01*
X0024611Y0016187D01*
X0024716Y0016094D01*
X0024819Y0015997D01*
X0024919Y0015898D01*
X0025016Y0015796D01*
X0025110Y0015691D01*
X0025201Y0015584D01*
X0025289Y0015474D01*
X0025374Y0015362D01*
X0025456Y0015247D01*
X0025535Y0015130D01*
X0025610Y0015011D01*
X0025682Y0014890D01*
X0025750Y0014767D01*
X0025815Y0014642D01*
X0025877Y0014515D01*
X0025934Y0014386D01*
X0025989Y0014256D01*
X0026039Y0014125D01*
X0026086Y0013992D01*
X0026129Y0013858D01*
X0026168Y0013722D01*
X0026203Y0013586D01*
X0026235Y0013449D01*
X0026262Y0013311D01*
X0026286Y0013172D01*
X0026306Y0013032D01*
X0026322Y0012892D01*
X0026334Y0012752D01*
X0026342Y0012611D01*
X0026346Y0012470D01*
X0026346Y0012330D01*
X0026342Y0012189D01*
X0026334Y0012048D01*
X0026322Y0011908D01*
X0026306Y0011768D01*
X0026286Y0011628D01*
X0026262Y0011489D01*
X0026235Y0011351D01*
X0026203Y0011214D01*
X0026168Y0011078D01*
X0026129Y0010942D01*
X0026086Y0010808D01*
X0026039Y0010675D01*
X0025989Y0010544D01*
X0025934Y0010414D01*
X0025877Y0010285D01*
X0025815Y0010158D01*
X0025750Y0010033D01*
X0025682Y0009910D01*
X0025610Y0009789D01*
X0025535Y0009670D01*
X0025456Y0009553D01*
X0025374Y0009438D01*
X0025289Y0009326D01*
X0025201Y0009216D01*
X0025110Y0009109D01*
X0025016Y0009004D01*
X0024919Y0008902D01*
X0024819Y0008803D01*
X0024716Y0008706D01*
X0024611Y0008613D01*
X0024503Y0008522D01*
X0024392Y0008435D01*
X0024279Y0008351D01*
X0024164Y0008270D01*
X0024047Y0008192D01*
X0023927Y0008118D01*
X0023805Y0008047D01*
X0023682Y0007979D01*
X0023556Y0007915D01*
X0023429Y0007855D01*
X0023300Y0007798D01*
X0023170Y0007744D01*
X0023038Y0007695D01*
X0022904Y0007649D01*
X0022770Y0007607D01*
X0022634Y0007569D01*
X0022498Y0007534D01*
X0022360Y0007504D01*
X0022222Y0007477D01*
X0022083Y0007455D01*
X0021943Y0007436D01*
X0021803Y0007421D01*
X0021663Y0007410D01*
X0021522Y0007403D01*
X0021381Y0007400D01*
X0021240Y0007401D01*
X0021100Y0007406D01*
X0020959Y0007415D01*
X0020819Y0007428D01*
X0020679Y0007445D01*
X0020539Y0007465D01*
X0020401Y0007490D01*
X0020263Y0007519D01*
X0020126Y0007551D01*
X0019990Y0007587D01*
X0019855Y0007628D01*
X0019721Y0007672D01*
X0019588Y0007719D01*
X0019457Y0007771D01*
X0019327Y0007826D01*
X0019199Y0007884D01*
X0019073Y0007947D01*
X0018948Y0008012D01*
X0018826Y0008082D01*
X0018705Y0008154D01*
X0018586Y0008230D01*
X0018470Y0008310D01*
X0018356Y0008393D01*
X0018244Y0008478D01*
X0018135Y0008567D01*
X0018028Y0008659D01*
X0017924Y0008754D01*
X0017823Y0008852D01*
X0017724Y0008953D01*
X0017629Y0009056D01*
X0017536Y0009162D01*
X0017446Y0009271D01*
X0017360Y0009382D01*
X0017276Y0009495D01*
X0017196Y0009611D01*
X0017119Y0009729D01*
X0017046Y0009849D01*
X0016975Y0009972D01*
X0016909Y0010096D01*
X0016846Y0010222D01*
X0016786Y0010349D01*
X0016730Y0010478D01*
X0016678Y0010609D01*
X0016629Y0010741D01*
X0016584Y0010875D01*
X0016543Y0011010D01*
X0016506Y0011146D01*
X0016472Y0011282D01*
X0016443Y0011420D01*
X0016417Y0011559D01*
X0016396Y0011698D01*
X0016378Y0011838D01*
X0016364Y0011978D01*
X0016354Y0012118D01*
X0016348Y0012259D01*
X0016346Y0012400D01*
X0028335Y0037920D02*
X0028337Y0038001D01*
X0028343Y0038083D01*
X0028353Y0038164D01*
X0028367Y0038244D01*
X0028384Y0038323D01*
X0028406Y0038402D01*
X0028431Y0038479D01*
X0028460Y0038556D01*
X0028493Y0038630D01*
X0028530Y0038703D01*
X0028569Y0038774D01*
X0028613Y0038843D01*
X0028659Y0038910D01*
X0028709Y0038974D01*
X0028762Y0039036D01*
X0028818Y0039096D01*
X0028876Y0039152D01*
X0028938Y0039206D01*
X0029002Y0039257D01*
X0029068Y0039304D01*
X0029136Y0039348D01*
X0029207Y0039389D01*
X0029279Y0039426D01*
X0029354Y0039460D01*
X0029429Y0039490D01*
X0029507Y0039516D01*
X0029585Y0039539D01*
X0029664Y0039557D01*
X0029744Y0039572D01*
X0029825Y0039583D01*
X0029906Y0039590D01*
X0029988Y0039593D01*
X0030069Y0039592D01*
X0030150Y0039587D01*
X0030231Y0039578D01*
X0030312Y0039565D01*
X0030392Y0039548D01*
X0030470Y0039528D01*
X0030548Y0039503D01*
X0030625Y0039475D01*
X0030700Y0039443D01*
X0030773Y0039408D01*
X0030844Y0039369D01*
X0030914Y0039326D01*
X0030981Y0039281D01*
X0031047Y0039232D01*
X0031109Y0039180D01*
X0031169Y0039124D01*
X0031226Y0039066D01*
X0031281Y0039006D01*
X0031332Y0038942D01*
X0031380Y0038877D01*
X0031425Y0038809D01*
X0031467Y0038739D01*
X0031505Y0038667D01*
X0031540Y0038593D01*
X0031571Y0038518D01*
X0031598Y0038441D01*
X0031621Y0038363D01*
X0031641Y0038284D01*
X0031657Y0038204D01*
X0031669Y0038123D01*
X0031677Y0038042D01*
X0031681Y0037961D01*
X0031681Y0037879D01*
X0031677Y0037798D01*
X0031669Y0037717D01*
X0031657Y0037636D01*
X0031641Y0037556D01*
X0031621Y0037477D01*
X0031598Y0037399D01*
X0031571Y0037322D01*
X0031540Y0037247D01*
X0031505Y0037173D01*
X0031467Y0037101D01*
X0031425Y0037031D01*
X0031380Y0036963D01*
X0031332Y0036898D01*
X0031281Y0036834D01*
X0031226Y0036774D01*
X0031169Y0036716D01*
X0031109Y0036660D01*
X0031047Y0036608D01*
X0030981Y0036559D01*
X0030914Y0036514D01*
X0030845Y0036471D01*
X0030773Y0036432D01*
X0030700Y0036397D01*
X0030625Y0036365D01*
X0030548Y0036337D01*
X0030470Y0036312D01*
X0030392Y0036292D01*
X0030312Y0036275D01*
X0030231Y0036262D01*
X0030150Y0036253D01*
X0030069Y0036248D01*
X0029988Y0036247D01*
X0029906Y0036250D01*
X0029825Y0036257D01*
X0029744Y0036268D01*
X0029664Y0036283D01*
X0029585Y0036301D01*
X0029507Y0036324D01*
X0029429Y0036350D01*
X0029354Y0036380D01*
X0029279Y0036414D01*
X0029207Y0036451D01*
X0029136Y0036492D01*
X0029068Y0036536D01*
X0029002Y0036583D01*
X0028938Y0036634D01*
X0028876Y0036688D01*
X0028818Y0036744D01*
X0028762Y0036804D01*
X0028709Y0036866D01*
X0028659Y0036930D01*
X0028613Y0036997D01*
X0028569Y0037066D01*
X0028530Y0037137D01*
X0028493Y0037210D01*
X0028460Y0037284D01*
X0028431Y0037361D01*
X0028406Y0037438D01*
X0028384Y0037517D01*
X0028367Y0037596D01*
X0028353Y0037676D01*
X0028343Y0037757D01*
X0028337Y0037839D01*
X0028335Y0037920D01*
X0028335Y0052880D02*
X0028337Y0052961D01*
X0028343Y0053043D01*
X0028353Y0053124D01*
X0028367Y0053204D01*
X0028384Y0053283D01*
X0028406Y0053362D01*
X0028431Y0053439D01*
X0028460Y0053516D01*
X0028493Y0053590D01*
X0028530Y0053663D01*
X0028569Y0053734D01*
X0028613Y0053803D01*
X0028659Y0053870D01*
X0028709Y0053934D01*
X0028762Y0053996D01*
X0028818Y0054056D01*
X0028876Y0054112D01*
X0028938Y0054166D01*
X0029002Y0054217D01*
X0029068Y0054264D01*
X0029136Y0054308D01*
X0029207Y0054349D01*
X0029279Y0054386D01*
X0029354Y0054420D01*
X0029429Y0054450D01*
X0029507Y0054476D01*
X0029585Y0054499D01*
X0029664Y0054517D01*
X0029744Y0054532D01*
X0029825Y0054543D01*
X0029906Y0054550D01*
X0029988Y0054553D01*
X0030069Y0054552D01*
X0030150Y0054547D01*
X0030231Y0054538D01*
X0030312Y0054525D01*
X0030392Y0054508D01*
X0030470Y0054488D01*
X0030548Y0054463D01*
X0030625Y0054435D01*
X0030700Y0054403D01*
X0030773Y0054368D01*
X0030844Y0054329D01*
X0030914Y0054286D01*
X0030981Y0054241D01*
X0031047Y0054192D01*
X0031109Y0054140D01*
X0031169Y0054084D01*
X0031226Y0054026D01*
X0031281Y0053966D01*
X0031332Y0053902D01*
X0031380Y0053837D01*
X0031425Y0053769D01*
X0031467Y0053699D01*
X0031505Y0053627D01*
X0031540Y0053553D01*
X0031571Y0053478D01*
X0031598Y0053401D01*
X0031621Y0053323D01*
X0031641Y0053244D01*
X0031657Y0053164D01*
X0031669Y0053083D01*
X0031677Y0053002D01*
X0031681Y0052921D01*
X0031681Y0052839D01*
X0031677Y0052758D01*
X0031669Y0052677D01*
X0031657Y0052596D01*
X0031641Y0052516D01*
X0031621Y0052437D01*
X0031598Y0052359D01*
X0031571Y0052282D01*
X0031540Y0052207D01*
X0031505Y0052133D01*
X0031467Y0052061D01*
X0031425Y0051991D01*
X0031380Y0051923D01*
X0031332Y0051858D01*
X0031281Y0051794D01*
X0031226Y0051734D01*
X0031169Y0051676D01*
X0031109Y0051620D01*
X0031047Y0051568D01*
X0030981Y0051519D01*
X0030914Y0051474D01*
X0030845Y0051431D01*
X0030773Y0051392D01*
X0030700Y0051357D01*
X0030625Y0051325D01*
X0030548Y0051297D01*
X0030470Y0051272D01*
X0030392Y0051252D01*
X0030312Y0051235D01*
X0030231Y0051222D01*
X0030150Y0051213D01*
X0030069Y0051208D01*
X0029988Y0051207D01*
X0029906Y0051210D01*
X0029825Y0051217D01*
X0029744Y0051228D01*
X0029664Y0051243D01*
X0029585Y0051261D01*
X0029507Y0051284D01*
X0029429Y0051310D01*
X0029354Y0051340D01*
X0029279Y0051374D01*
X0029207Y0051411D01*
X0029136Y0051452D01*
X0029068Y0051496D01*
X0029002Y0051543D01*
X0028938Y0051594D01*
X0028876Y0051648D01*
X0028818Y0051704D01*
X0028762Y0051764D01*
X0028709Y0051826D01*
X0028659Y0051890D01*
X0028613Y0051957D01*
X0028569Y0052026D01*
X0028530Y0052097D01*
X0028493Y0052170D01*
X0028460Y0052244D01*
X0028431Y0052321D01*
X0028406Y0052398D01*
X0028384Y0052477D01*
X0028367Y0052556D01*
X0028353Y0052636D01*
X0028343Y0052717D01*
X0028337Y0052799D01*
X0028335Y0052880D01*
X0067346Y0065400D02*
X0075346Y0065400D01*
X0075346Y0073400D01*
X0067346Y0073400D01*
X0067346Y0065400D01*
X0016346Y0078400D02*
X0016348Y0078541D01*
X0016354Y0078682D01*
X0016364Y0078822D01*
X0016378Y0078962D01*
X0016396Y0079102D01*
X0016417Y0079241D01*
X0016443Y0079380D01*
X0016472Y0079518D01*
X0016506Y0079654D01*
X0016543Y0079790D01*
X0016584Y0079925D01*
X0016629Y0080059D01*
X0016678Y0080191D01*
X0016730Y0080322D01*
X0016786Y0080451D01*
X0016846Y0080578D01*
X0016909Y0080704D01*
X0016975Y0080828D01*
X0017046Y0080951D01*
X0017119Y0081071D01*
X0017196Y0081189D01*
X0017276Y0081305D01*
X0017360Y0081418D01*
X0017446Y0081529D01*
X0017536Y0081638D01*
X0017629Y0081744D01*
X0017724Y0081847D01*
X0017823Y0081948D01*
X0017924Y0082046D01*
X0018028Y0082141D01*
X0018135Y0082233D01*
X0018244Y0082322D01*
X0018356Y0082407D01*
X0018470Y0082490D01*
X0018586Y0082570D01*
X0018705Y0082646D01*
X0018826Y0082718D01*
X0018948Y0082788D01*
X0019073Y0082853D01*
X0019199Y0082916D01*
X0019327Y0082974D01*
X0019457Y0083029D01*
X0019588Y0083081D01*
X0019721Y0083128D01*
X0019855Y0083172D01*
X0019990Y0083213D01*
X0020126Y0083249D01*
X0020263Y0083281D01*
X0020401Y0083310D01*
X0020539Y0083335D01*
X0020679Y0083355D01*
X0020819Y0083372D01*
X0020959Y0083385D01*
X0021100Y0083394D01*
X0021240Y0083399D01*
X0021381Y0083400D01*
X0021522Y0083397D01*
X0021663Y0083390D01*
X0021803Y0083379D01*
X0021943Y0083364D01*
X0022083Y0083345D01*
X0022222Y0083323D01*
X0022360Y0083296D01*
X0022498Y0083266D01*
X0022634Y0083231D01*
X0022770Y0083193D01*
X0022904Y0083151D01*
X0023038Y0083105D01*
X0023170Y0083056D01*
X0023300Y0083002D01*
X0023429Y0082945D01*
X0023556Y0082885D01*
X0023682Y0082821D01*
X0023805Y0082753D01*
X0023927Y0082682D01*
X0024047Y0082608D01*
X0024164Y0082530D01*
X0024279Y0082449D01*
X0024392Y0082365D01*
X0024503Y0082278D01*
X0024611Y0082187D01*
X0024716Y0082094D01*
X0024819Y0081997D01*
X0024919Y0081898D01*
X0025016Y0081796D01*
X0025110Y0081691D01*
X0025201Y0081584D01*
X0025289Y0081474D01*
X0025374Y0081362D01*
X0025456Y0081247D01*
X0025535Y0081130D01*
X0025610Y0081011D01*
X0025682Y0080890D01*
X0025750Y0080767D01*
X0025815Y0080642D01*
X0025877Y0080515D01*
X0025934Y0080386D01*
X0025989Y0080256D01*
X0026039Y0080125D01*
X0026086Y0079992D01*
X0026129Y0079858D01*
X0026168Y0079722D01*
X0026203Y0079586D01*
X0026235Y0079449D01*
X0026262Y0079311D01*
X0026286Y0079172D01*
X0026306Y0079032D01*
X0026322Y0078892D01*
X0026334Y0078752D01*
X0026342Y0078611D01*
X0026346Y0078470D01*
X0026346Y0078330D01*
X0026342Y0078189D01*
X0026334Y0078048D01*
X0026322Y0077908D01*
X0026306Y0077768D01*
X0026286Y0077628D01*
X0026262Y0077489D01*
X0026235Y0077351D01*
X0026203Y0077214D01*
X0026168Y0077078D01*
X0026129Y0076942D01*
X0026086Y0076808D01*
X0026039Y0076675D01*
X0025989Y0076544D01*
X0025934Y0076414D01*
X0025877Y0076285D01*
X0025815Y0076158D01*
X0025750Y0076033D01*
X0025682Y0075910D01*
X0025610Y0075789D01*
X0025535Y0075670D01*
X0025456Y0075553D01*
X0025374Y0075438D01*
X0025289Y0075326D01*
X0025201Y0075216D01*
X0025110Y0075109D01*
X0025016Y0075004D01*
X0024919Y0074902D01*
X0024819Y0074803D01*
X0024716Y0074706D01*
X0024611Y0074613D01*
X0024503Y0074522D01*
X0024392Y0074435D01*
X0024279Y0074351D01*
X0024164Y0074270D01*
X0024047Y0074192D01*
X0023927Y0074118D01*
X0023805Y0074047D01*
X0023682Y0073979D01*
X0023556Y0073915D01*
X0023429Y0073855D01*
X0023300Y0073798D01*
X0023170Y0073744D01*
X0023038Y0073695D01*
X0022904Y0073649D01*
X0022770Y0073607D01*
X0022634Y0073569D01*
X0022498Y0073534D01*
X0022360Y0073504D01*
X0022222Y0073477D01*
X0022083Y0073455D01*
X0021943Y0073436D01*
X0021803Y0073421D01*
X0021663Y0073410D01*
X0021522Y0073403D01*
X0021381Y0073400D01*
X0021240Y0073401D01*
X0021100Y0073406D01*
X0020959Y0073415D01*
X0020819Y0073428D01*
X0020679Y0073445D01*
X0020539Y0073465D01*
X0020401Y0073490D01*
X0020263Y0073519D01*
X0020126Y0073551D01*
X0019990Y0073587D01*
X0019855Y0073628D01*
X0019721Y0073672D01*
X0019588Y0073719D01*
X0019457Y0073771D01*
X0019327Y0073826D01*
X0019199Y0073884D01*
X0019073Y0073947D01*
X0018948Y0074012D01*
X0018826Y0074082D01*
X0018705Y0074154D01*
X0018586Y0074230D01*
X0018470Y0074310D01*
X0018356Y0074393D01*
X0018244Y0074478D01*
X0018135Y0074567D01*
X0018028Y0074659D01*
X0017924Y0074754D01*
X0017823Y0074852D01*
X0017724Y0074953D01*
X0017629Y0075056D01*
X0017536Y0075162D01*
X0017446Y0075271D01*
X0017360Y0075382D01*
X0017276Y0075495D01*
X0017196Y0075611D01*
X0017119Y0075729D01*
X0017046Y0075849D01*
X0016975Y0075972D01*
X0016909Y0076096D01*
X0016846Y0076222D01*
X0016786Y0076349D01*
X0016730Y0076478D01*
X0016678Y0076609D01*
X0016629Y0076741D01*
X0016584Y0076875D01*
X0016543Y0077010D01*
X0016506Y0077146D01*
X0016472Y0077282D01*
X0016443Y0077420D01*
X0016417Y0077559D01*
X0016396Y0077698D01*
X0016378Y0077838D01*
X0016364Y0077978D01*
X0016354Y0078118D01*
X0016348Y0078259D01*
X0016346Y0078400D01*
X0067346Y0025400D02*
X0075346Y0025400D01*
X0075346Y0017400D01*
X0067346Y0017400D01*
X0067346Y0025400D01*
X0114346Y0021400D02*
X0114348Y0021541D01*
X0114354Y0021682D01*
X0114364Y0021822D01*
X0114378Y0021962D01*
X0114396Y0022102D01*
X0114417Y0022241D01*
X0114443Y0022380D01*
X0114472Y0022518D01*
X0114506Y0022654D01*
X0114543Y0022790D01*
X0114584Y0022925D01*
X0114629Y0023059D01*
X0114678Y0023191D01*
X0114730Y0023322D01*
X0114786Y0023451D01*
X0114846Y0023578D01*
X0114909Y0023704D01*
X0114975Y0023828D01*
X0115046Y0023951D01*
X0115119Y0024071D01*
X0115196Y0024189D01*
X0115276Y0024305D01*
X0115360Y0024418D01*
X0115446Y0024529D01*
X0115536Y0024638D01*
X0115629Y0024744D01*
X0115724Y0024847D01*
X0115823Y0024948D01*
X0115924Y0025046D01*
X0116028Y0025141D01*
X0116135Y0025233D01*
X0116244Y0025322D01*
X0116356Y0025407D01*
X0116470Y0025490D01*
X0116586Y0025570D01*
X0116705Y0025646D01*
X0116826Y0025718D01*
X0116948Y0025788D01*
X0117073Y0025853D01*
X0117199Y0025916D01*
X0117327Y0025974D01*
X0117457Y0026029D01*
X0117588Y0026081D01*
X0117721Y0026128D01*
X0117855Y0026172D01*
X0117990Y0026213D01*
X0118126Y0026249D01*
X0118263Y0026281D01*
X0118401Y0026310D01*
X0118539Y0026335D01*
X0118679Y0026355D01*
X0118819Y0026372D01*
X0118959Y0026385D01*
X0119100Y0026394D01*
X0119240Y0026399D01*
X0119381Y0026400D01*
X0119522Y0026397D01*
X0119663Y0026390D01*
X0119803Y0026379D01*
X0119943Y0026364D01*
X0120083Y0026345D01*
X0120222Y0026323D01*
X0120360Y0026296D01*
X0120498Y0026266D01*
X0120634Y0026231D01*
X0120770Y0026193D01*
X0120904Y0026151D01*
X0121038Y0026105D01*
X0121170Y0026056D01*
X0121300Y0026002D01*
X0121429Y0025945D01*
X0121556Y0025885D01*
X0121682Y0025821D01*
X0121805Y0025753D01*
X0121927Y0025682D01*
X0122047Y0025608D01*
X0122164Y0025530D01*
X0122279Y0025449D01*
X0122392Y0025365D01*
X0122503Y0025278D01*
X0122611Y0025187D01*
X0122716Y0025094D01*
X0122819Y0024997D01*
X0122919Y0024898D01*
X0123016Y0024796D01*
X0123110Y0024691D01*
X0123201Y0024584D01*
X0123289Y0024474D01*
X0123374Y0024362D01*
X0123456Y0024247D01*
X0123535Y0024130D01*
X0123610Y0024011D01*
X0123682Y0023890D01*
X0123750Y0023767D01*
X0123815Y0023642D01*
X0123877Y0023515D01*
X0123934Y0023386D01*
X0123989Y0023256D01*
X0124039Y0023125D01*
X0124086Y0022992D01*
X0124129Y0022858D01*
X0124168Y0022722D01*
X0124203Y0022586D01*
X0124235Y0022449D01*
X0124262Y0022311D01*
X0124286Y0022172D01*
X0124306Y0022032D01*
X0124322Y0021892D01*
X0124334Y0021752D01*
X0124342Y0021611D01*
X0124346Y0021470D01*
X0124346Y0021330D01*
X0124342Y0021189D01*
X0124334Y0021048D01*
X0124322Y0020908D01*
X0124306Y0020768D01*
X0124286Y0020628D01*
X0124262Y0020489D01*
X0124235Y0020351D01*
X0124203Y0020214D01*
X0124168Y0020078D01*
X0124129Y0019942D01*
X0124086Y0019808D01*
X0124039Y0019675D01*
X0123989Y0019544D01*
X0123934Y0019414D01*
X0123877Y0019285D01*
X0123815Y0019158D01*
X0123750Y0019033D01*
X0123682Y0018910D01*
X0123610Y0018789D01*
X0123535Y0018670D01*
X0123456Y0018553D01*
X0123374Y0018438D01*
X0123289Y0018326D01*
X0123201Y0018216D01*
X0123110Y0018109D01*
X0123016Y0018004D01*
X0122919Y0017902D01*
X0122819Y0017803D01*
X0122716Y0017706D01*
X0122611Y0017613D01*
X0122503Y0017522D01*
X0122392Y0017435D01*
X0122279Y0017351D01*
X0122164Y0017270D01*
X0122047Y0017192D01*
X0121927Y0017118D01*
X0121805Y0017047D01*
X0121682Y0016979D01*
X0121556Y0016915D01*
X0121429Y0016855D01*
X0121300Y0016798D01*
X0121170Y0016744D01*
X0121038Y0016695D01*
X0120904Y0016649D01*
X0120770Y0016607D01*
X0120634Y0016569D01*
X0120498Y0016534D01*
X0120360Y0016504D01*
X0120222Y0016477D01*
X0120083Y0016455D01*
X0119943Y0016436D01*
X0119803Y0016421D01*
X0119663Y0016410D01*
X0119522Y0016403D01*
X0119381Y0016400D01*
X0119240Y0016401D01*
X0119100Y0016406D01*
X0118959Y0016415D01*
X0118819Y0016428D01*
X0118679Y0016445D01*
X0118539Y0016465D01*
X0118401Y0016490D01*
X0118263Y0016519D01*
X0118126Y0016551D01*
X0117990Y0016587D01*
X0117855Y0016628D01*
X0117721Y0016672D01*
X0117588Y0016719D01*
X0117457Y0016771D01*
X0117327Y0016826D01*
X0117199Y0016884D01*
X0117073Y0016947D01*
X0116948Y0017012D01*
X0116826Y0017082D01*
X0116705Y0017154D01*
X0116586Y0017230D01*
X0116470Y0017310D01*
X0116356Y0017393D01*
X0116244Y0017478D01*
X0116135Y0017567D01*
X0116028Y0017659D01*
X0115924Y0017754D01*
X0115823Y0017852D01*
X0115724Y0017953D01*
X0115629Y0018056D01*
X0115536Y0018162D01*
X0115446Y0018271D01*
X0115360Y0018382D01*
X0115276Y0018495D01*
X0115196Y0018611D01*
X0115119Y0018729D01*
X0115046Y0018849D01*
X0114975Y0018972D01*
X0114909Y0019096D01*
X0114846Y0019222D01*
X0114786Y0019349D01*
X0114730Y0019478D01*
X0114678Y0019609D01*
X0114629Y0019741D01*
X0114584Y0019875D01*
X0114543Y0020010D01*
X0114506Y0020146D01*
X0114472Y0020282D01*
X0114443Y0020420D01*
X0114417Y0020559D01*
X0114396Y0020698D01*
X0114378Y0020838D01*
X0114364Y0020978D01*
X0114354Y0021118D01*
X0114348Y0021259D01*
X0114346Y0021400D01*
X0157346Y0012400D02*
X0157348Y0012541D01*
X0157354Y0012682D01*
X0157364Y0012822D01*
X0157378Y0012962D01*
X0157396Y0013102D01*
X0157417Y0013241D01*
X0157443Y0013380D01*
X0157472Y0013518D01*
X0157506Y0013654D01*
X0157543Y0013790D01*
X0157584Y0013925D01*
X0157629Y0014059D01*
X0157678Y0014191D01*
X0157730Y0014322D01*
X0157786Y0014451D01*
X0157846Y0014578D01*
X0157909Y0014704D01*
X0157975Y0014828D01*
X0158046Y0014951D01*
X0158119Y0015071D01*
X0158196Y0015189D01*
X0158276Y0015305D01*
X0158360Y0015418D01*
X0158446Y0015529D01*
X0158536Y0015638D01*
X0158629Y0015744D01*
X0158724Y0015847D01*
X0158823Y0015948D01*
X0158924Y0016046D01*
X0159028Y0016141D01*
X0159135Y0016233D01*
X0159244Y0016322D01*
X0159356Y0016407D01*
X0159470Y0016490D01*
X0159586Y0016570D01*
X0159705Y0016646D01*
X0159826Y0016718D01*
X0159948Y0016788D01*
X0160073Y0016853D01*
X0160199Y0016916D01*
X0160327Y0016974D01*
X0160457Y0017029D01*
X0160588Y0017081D01*
X0160721Y0017128D01*
X0160855Y0017172D01*
X0160990Y0017213D01*
X0161126Y0017249D01*
X0161263Y0017281D01*
X0161401Y0017310D01*
X0161539Y0017335D01*
X0161679Y0017355D01*
X0161819Y0017372D01*
X0161959Y0017385D01*
X0162100Y0017394D01*
X0162240Y0017399D01*
X0162381Y0017400D01*
X0162522Y0017397D01*
X0162663Y0017390D01*
X0162803Y0017379D01*
X0162943Y0017364D01*
X0163083Y0017345D01*
X0163222Y0017323D01*
X0163360Y0017296D01*
X0163498Y0017266D01*
X0163634Y0017231D01*
X0163770Y0017193D01*
X0163904Y0017151D01*
X0164038Y0017105D01*
X0164170Y0017056D01*
X0164300Y0017002D01*
X0164429Y0016945D01*
X0164556Y0016885D01*
X0164682Y0016821D01*
X0164805Y0016753D01*
X0164927Y0016682D01*
X0165047Y0016608D01*
X0165164Y0016530D01*
X0165279Y0016449D01*
X0165392Y0016365D01*
X0165503Y0016278D01*
X0165611Y0016187D01*
X0165716Y0016094D01*
X0165819Y0015997D01*
X0165919Y0015898D01*
X0166016Y0015796D01*
X0166110Y0015691D01*
X0166201Y0015584D01*
X0166289Y0015474D01*
X0166374Y0015362D01*
X0166456Y0015247D01*
X0166535Y0015130D01*
X0166610Y0015011D01*
X0166682Y0014890D01*
X0166750Y0014767D01*
X0166815Y0014642D01*
X0166877Y0014515D01*
X0166934Y0014386D01*
X0166989Y0014256D01*
X0167039Y0014125D01*
X0167086Y0013992D01*
X0167129Y0013858D01*
X0167168Y0013722D01*
X0167203Y0013586D01*
X0167235Y0013449D01*
X0167262Y0013311D01*
X0167286Y0013172D01*
X0167306Y0013032D01*
X0167322Y0012892D01*
X0167334Y0012752D01*
X0167342Y0012611D01*
X0167346Y0012470D01*
X0167346Y0012330D01*
X0167342Y0012189D01*
X0167334Y0012048D01*
X0167322Y0011908D01*
X0167306Y0011768D01*
X0167286Y0011628D01*
X0167262Y0011489D01*
X0167235Y0011351D01*
X0167203Y0011214D01*
X0167168Y0011078D01*
X0167129Y0010942D01*
X0167086Y0010808D01*
X0167039Y0010675D01*
X0166989Y0010544D01*
X0166934Y0010414D01*
X0166877Y0010285D01*
X0166815Y0010158D01*
X0166750Y0010033D01*
X0166682Y0009910D01*
X0166610Y0009789D01*
X0166535Y0009670D01*
X0166456Y0009553D01*
X0166374Y0009438D01*
X0166289Y0009326D01*
X0166201Y0009216D01*
X0166110Y0009109D01*
X0166016Y0009004D01*
X0165919Y0008902D01*
X0165819Y0008803D01*
X0165716Y0008706D01*
X0165611Y0008613D01*
X0165503Y0008522D01*
X0165392Y0008435D01*
X0165279Y0008351D01*
X0165164Y0008270D01*
X0165047Y0008192D01*
X0164927Y0008118D01*
X0164805Y0008047D01*
X0164682Y0007979D01*
X0164556Y0007915D01*
X0164429Y0007855D01*
X0164300Y0007798D01*
X0164170Y0007744D01*
X0164038Y0007695D01*
X0163904Y0007649D01*
X0163770Y0007607D01*
X0163634Y0007569D01*
X0163498Y0007534D01*
X0163360Y0007504D01*
X0163222Y0007477D01*
X0163083Y0007455D01*
X0162943Y0007436D01*
X0162803Y0007421D01*
X0162663Y0007410D01*
X0162522Y0007403D01*
X0162381Y0007400D01*
X0162240Y0007401D01*
X0162100Y0007406D01*
X0161959Y0007415D01*
X0161819Y0007428D01*
X0161679Y0007445D01*
X0161539Y0007465D01*
X0161401Y0007490D01*
X0161263Y0007519D01*
X0161126Y0007551D01*
X0160990Y0007587D01*
X0160855Y0007628D01*
X0160721Y0007672D01*
X0160588Y0007719D01*
X0160457Y0007771D01*
X0160327Y0007826D01*
X0160199Y0007884D01*
X0160073Y0007947D01*
X0159948Y0008012D01*
X0159826Y0008082D01*
X0159705Y0008154D01*
X0159586Y0008230D01*
X0159470Y0008310D01*
X0159356Y0008393D01*
X0159244Y0008478D01*
X0159135Y0008567D01*
X0159028Y0008659D01*
X0158924Y0008754D01*
X0158823Y0008852D01*
X0158724Y0008953D01*
X0158629Y0009056D01*
X0158536Y0009162D01*
X0158446Y0009271D01*
X0158360Y0009382D01*
X0158276Y0009495D01*
X0158196Y0009611D01*
X0158119Y0009729D01*
X0158046Y0009849D01*
X0157975Y0009972D01*
X0157909Y0010096D01*
X0157846Y0010222D01*
X0157786Y0010349D01*
X0157730Y0010478D01*
X0157678Y0010609D01*
X0157629Y0010741D01*
X0157584Y0010875D01*
X0157543Y0011010D01*
X0157506Y0011146D01*
X0157472Y0011282D01*
X0157443Y0011420D01*
X0157417Y0011559D01*
X0157396Y0011698D01*
X0157378Y0011838D01*
X0157364Y0011978D01*
X0157354Y0012118D01*
X0157348Y0012259D01*
X0157346Y0012400D01*
X0123346Y0065400D02*
X0115346Y0065400D01*
X0115346Y0073400D01*
X0123346Y0073400D01*
X0123346Y0065400D01*
X0157346Y0078400D02*
X0157348Y0078541D01*
X0157354Y0078682D01*
X0157364Y0078822D01*
X0157378Y0078962D01*
X0157396Y0079102D01*
X0157417Y0079241D01*
X0157443Y0079380D01*
X0157472Y0079518D01*
X0157506Y0079654D01*
X0157543Y0079790D01*
X0157584Y0079925D01*
X0157629Y0080059D01*
X0157678Y0080191D01*
X0157730Y0080322D01*
X0157786Y0080451D01*
X0157846Y0080578D01*
X0157909Y0080704D01*
X0157975Y0080828D01*
X0158046Y0080951D01*
X0158119Y0081071D01*
X0158196Y0081189D01*
X0158276Y0081305D01*
X0158360Y0081418D01*
X0158446Y0081529D01*
X0158536Y0081638D01*
X0158629Y0081744D01*
X0158724Y0081847D01*
X0158823Y0081948D01*
X0158924Y0082046D01*
X0159028Y0082141D01*
X0159135Y0082233D01*
X0159244Y0082322D01*
X0159356Y0082407D01*
X0159470Y0082490D01*
X0159586Y0082570D01*
X0159705Y0082646D01*
X0159826Y0082718D01*
X0159948Y0082788D01*
X0160073Y0082853D01*
X0160199Y0082916D01*
X0160327Y0082974D01*
X0160457Y0083029D01*
X0160588Y0083081D01*
X0160721Y0083128D01*
X0160855Y0083172D01*
X0160990Y0083213D01*
X0161126Y0083249D01*
X0161263Y0083281D01*
X0161401Y0083310D01*
X0161539Y0083335D01*
X0161679Y0083355D01*
X0161819Y0083372D01*
X0161959Y0083385D01*
X0162100Y0083394D01*
X0162240Y0083399D01*
X0162381Y0083400D01*
X0162522Y0083397D01*
X0162663Y0083390D01*
X0162803Y0083379D01*
X0162943Y0083364D01*
X0163083Y0083345D01*
X0163222Y0083323D01*
X0163360Y0083296D01*
X0163498Y0083266D01*
X0163634Y0083231D01*
X0163770Y0083193D01*
X0163904Y0083151D01*
X0164038Y0083105D01*
X0164170Y0083056D01*
X0164300Y0083002D01*
X0164429Y0082945D01*
X0164556Y0082885D01*
X0164682Y0082821D01*
X0164805Y0082753D01*
X0164927Y0082682D01*
X0165047Y0082608D01*
X0165164Y0082530D01*
X0165279Y0082449D01*
X0165392Y0082365D01*
X0165503Y0082278D01*
X0165611Y0082187D01*
X0165716Y0082094D01*
X0165819Y0081997D01*
X0165919Y0081898D01*
X0166016Y0081796D01*
X0166110Y0081691D01*
X0166201Y0081584D01*
X0166289Y0081474D01*
X0166374Y0081362D01*
X0166456Y0081247D01*
X0166535Y0081130D01*
X0166610Y0081011D01*
X0166682Y0080890D01*
X0166750Y0080767D01*
X0166815Y0080642D01*
X0166877Y0080515D01*
X0166934Y0080386D01*
X0166989Y0080256D01*
X0167039Y0080125D01*
X0167086Y0079992D01*
X0167129Y0079858D01*
X0167168Y0079722D01*
X0167203Y0079586D01*
X0167235Y0079449D01*
X0167262Y0079311D01*
X0167286Y0079172D01*
X0167306Y0079032D01*
X0167322Y0078892D01*
X0167334Y0078752D01*
X0167342Y0078611D01*
X0167346Y0078470D01*
X0167346Y0078330D01*
X0167342Y0078189D01*
X0167334Y0078048D01*
X0167322Y0077908D01*
X0167306Y0077768D01*
X0167286Y0077628D01*
X0167262Y0077489D01*
X0167235Y0077351D01*
X0167203Y0077214D01*
X0167168Y0077078D01*
X0167129Y0076942D01*
X0167086Y0076808D01*
X0167039Y0076675D01*
X0166989Y0076544D01*
X0166934Y0076414D01*
X0166877Y0076285D01*
X0166815Y0076158D01*
X0166750Y0076033D01*
X0166682Y0075910D01*
X0166610Y0075789D01*
X0166535Y0075670D01*
X0166456Y0075553D01*
X0166374Y0075438D01*
X0166289Y0075326D01*
X0166201Y0075216D01*
X0166110Y0075109D01*
X0166016Y0075004D01*
X0165919Y0074902D01*
X0165819Y0074803D01*
X0165716Y0074706D01*
X0165611Y0074613D01*
X0165503Y0074522D01*
X0165392Y0074435D01*
X0165279Y0074351D01*
X0165164Y0074270D01*
X0165047Y0074192D01*
X0164927Y0074118D01*
X0164805Y0074047D01*
X0164682Y0073979D01*
X0164556Y0073915D01*
X0164429Y0073855D01*
X0164300Y0073798D01*
X0164170Y0073744D01*
X0164038Y0073695D01*
X0163904Y0073649D01*
X0163770Y0073607D01*
X0163634Y0073569D01*
X0163498Y0073534D01*
X0163360Y0073504D01*
X0163222Y0073477D01*
X0163083Y0073455D01*
X0162943Y0073436D01*
X0162803Y0073421D01*
X0162663Y0073410D01*
X0162522Y0073403D01*
X0162381Y0073400D01*
X0162240Y0073401D01*
X0162100Y0073406D01*
X0161959Y0073415D01*
X0161819Y0073428D01*
X0161679Y0073445D01*
X0161539Y0073465D01*
X0161401Y0073490D01*
X0161263Y0073519D01*
X0161126Y0073551D01*
X0160990Y0073587D01*
X0160855Y0073628D01*
X0160721Y0073672D01*
X0160588Y0073719D01*
X0160457Y0073771D01*
X0160327Y0073826D01*
X0160199Y0073884D01*
X0160073Y0073947D01*
X0159948Y0074012D01*
X0159826Y0074082D01*
X0159705Y0074154D01*
X0159586Y0074230D01*
X0159470Y0074310D01*
X0159356Y0074393D01*
X0159244Y0074478D01*
X0159135Y0074567D01*
X0159028Y0074659D01*
X0158924Y0074754D01*
X0158823Y0074852D01*
X0158724Y0074953D01*
X0158629Y0075056D01*
X0158536Y0075162D01*
X0158446Y0075271D01*
X0158360Y0075382D01*
X0158276Y0075495D01*
X0158196Y0075611D01*
X0158119Y0075729D01*
X0158046Y0075849D01*
X0157975Y0075972D01*
X0157909Y0076096D01*
X0157846Y0076222D01*
X0157786Y0076349D01*
X0157730Y0076478D01*
X0157678Y0076609D01*
X0157629Y0076741D01*
X0157584Y0076875D01*
X0157543Y0077010D01*
X0157506Y0077146D01*
X0157472Y0077282D01*
X0157443Y0077420D01*
X0157417Y0077559D01*
X0157396Y0077698D01*
X0157378Y0077838D01*
X0157364Y0077978D01*
X0157354Y0078118D01*
X0157348Y0078259D01*
X0157346Y0078400D01*
M02*
