G75*
%MOIN*%
%OFA0B0*%
%FSLAX25Y25*%
%IPPOS*%
%LPD*%
%AMOC8*
5,1,8,0,0,1.08239X$1,22.5*
%
%ADD10R,0.05906X0.04882*%
%ADD11R,0.04724X0.04724*%
%ADD12R,0.02165X0.04724*%
%ADD13R,0.04882X0.05906*%
%ADD14R,0.04331X0.07480*%
%ADD15R,0.05906X0.01102*%
%ADD16R,0.01102X0.05906*%
%ADD17C,0.04400*%
%ADD18R,0.05709X0.01575*%
%ADD19R,0.05906X0.07087*%
%ADD20R,0.05906X0.09843*%
%ADD21C,0.00800*%
%ADD22C,0.01600*%
%ADD23C,0.01200*%
%ADD24C,0.04362*%
%ADD25C,0.01000*%
%ADD26C,0.04559*%
D10*
X0059346Y0038939D03*
X0059346Y0046419D03*
X0059346Y0055412D03*
X0049625Y0055208D03*
X0040846Y0055160D03*
X0040846Y0062640D03*
X0049625Y0062688D03*
X0059346Y0062892D03*
X0125878Y0054348D03*
X0134602Y0054148D03*
X0143220Y0054202D03*
X0143220Y0046722D03*
X0134602Y0046668D03*
X0125878Y0046868D03*
X0142346Y0065660D03*
X0142346Y0073140D03*
X0142346Y0025140D03*
X0142346Y0017660D03*
D11*
X0134346Y0017266D03*
X0134346Y0025534D03*
X0134346Y0065266D03*
X0134346Y0073534D03*
D12*
X0052439Y0044878D03*
X0044958Y0044878D03*
X0044958Y0034641D03*
X0048698Y0034641D03*
X0052439Y0034641D03*
D13*
X0052651Y0027336D03*
X0045170Y0027336D03*
X0091598Y0015400D03*
X0099079Y0015400D03*
X0099087Y0075400D03*
X0091606Y0075400D03*
D14*
X0134058Y0036488D03*
X0143507Y0036488D03*
D15*
X0112079Y0036542D03*
X0112079Y0038510D03*
X0112079Y0040479D03*
X0112079Y0042447D03*
X0112079Y0044416D03*
X0112079Y0046384D03*
X0112079Y0048353D03*
X0112079Y0050321D03*
X0112079Y0052290D03*
X0112079Y0054258D03*
X0112079Y0056227D03*
X0078614Y0056227D03*
X0078614Y0054258D03*
X0078614Y0052290D03*
X0078614Y0050321D03*
X0078614Y0048353D03*
X0078614Y0046384D03*
X0078614Y0044416D03*
X0078614Y0042447D03*
X0078614Y0040479D03*
X0078614Y0038510D03*
X0078614Y0036542D03*
X0078614Y0034573D03*
X0112079Y0034573D03*
D16*
X0106173Y0028668D03*
X0104205Y0028668D03*
X0102236Y0028668D03*
X0100268Y0028668D03*
X0098299Y0028668D03*
X0096331Y0028668D03*
X0094362Y0028668D03*
X0092394Y0028668D03*
X0090425Y0028668D03*
X0088457Y0028668D03*
X0086488Y0028668D03*
X0084520Y0028668D03*
X0084520Y0062132D03*
X0086488Y0062132D03*
X0088457Y0062132D03*
X0090425Y0062132D03*
X0092394Y0062132D03*
X0094362Y0062132D03*
X0096331Y0062132D03*
X0098299Y0062132D03*
X0100268Y0062132D03*
X0102236Y0062132D03*
X0104205Y0062132D03*
X0106173Y0062132D03*
D17*
X0154846Y0055400D03*
X0159846Y0055400D03*
X0159846Y0050400D03*
X0154846Y0050400D03*
X0154846Y0045400D03*
X0159846Y0045400D03*
X0159846Y0040400D03*
X0154846Y0040400D03*
X0154846Y0035400D03*
X0159846Y0035400D03*
D18*
X0032075Y0040282D03*
X0032075Y0042841D03*
X0032075Y0045400D03*
X0032075Y0047959D03*
X0032075Y0050518D03*
D19*
X0021346Y0059908D03*
X0021346Y0030892D03*
D20*
X0021346Y0045400D03*
D21*
X0014851Y0010169D02*
X0015661Y0008213D01*
X0017159Y0006715D01*
X0019116Y0005904D01*
X0020175Y0005800D01*
X0163518Y0005800D01*
X0164577Y0005904D01*
X0166534Y0006715D01*
X0168032Y0008213D01*
X0168842Y0010169D01*
X0168946Y0011228D01*
X0168946Y0079572D01*
X0168842Y0080631D01*
X0168032Y0082587D01*
X0166534Y0084085D01*
X0164577Y0084896D01*
X0163518Y0085000D01*
X0020175Y0085000D01*
X0019116Y0084896D01*
X0017159Y0084085D01*
X0015661Y0082587D01*
X0014851Y0080631D01*
X0014746Y0079572D01*
X0014746Y0055980D01*
X0015626Y0055100D01*
X0016446Y0054280D01*
X0016446Y0036520D01*
X0014746Y0034820D01*
X0014746Y0011228D01*
X0014851Y0010169D01*
X0014978Y0009863D02*
X0015470Y0009863D01*
X0015308Y0009065D02*
X0015801Y0009065D01*
X0015921Y0008775D02*
X0017721Y0006974D01*
X0020073Y0006000D01*
X0022619Y0006000D01*
X0024972Y0006974D01*
X0026772Y0008775D01*
X0027746Y0011127D01*
X0027746Y0013673D01*
X0026772Y0016025D01*
X0024972Y0017826D01*
X0022619Y0018800D01*
X0020073Y0018800D01*
X0017721Y0017826D01*
X0015921Y0016025D01*
X0014946Y0013673D01*
X0014946Y0011127D01*
X0015921Y0008775D01*
X0015639Y0008266D02*
X0016429Y0008266D01*
X0016406Y0007468D02*
X0017228Y0007468D01*
X0017270Y0006669D02*
X0018458Y0006669D01*
X0019459Y0005870D02*
X0164234Y0005870D01*
X0163619Y0006000D02*
X0165972Y0006974D01*
X0167772Y0008775D01*
X0168746Y0011127D01*
X0168746Y0013673D01*
X0167772Y0016025D01*
X0165972Y0017826D01*
X0163619Y0018800D01*
X0161073Y0018800D01*
X0158721Y0017826D01*
X0156921Y0016025D01*
X0155946Y0013673D01*
X0155946Y0011127D01*
X0156921Y0008775D01*
X0158721Y0006974D01*
X0161073Y0006000D01*
X0163619Y0006000D01*
X0165235Y0006669D02*
X0166423Y0006669D01*
X0166465Y0007468D02*
X0167287Y0007468D01*
X0167263Y0008266D02*
X0168054Y0008266D01*
X0167892Y0009065D02*
X0168385Y0009065D01*
X0168223Y0009863D02*
X0168715Y0009863D01*
X0168554Y0010662D02*
X0168891Y0010662D01*
X0168946Y0011460D02*
X0168746Y0011460D01*
X0168746Y0012259D02*
X0168946Y0012259D01*
X0168946Y0013057D02*
X0168746Y0013057D01*
X0168671Y0013856D02*
X0168946Y0013856D01*
X0168946Y0014654D02*
X0168340Y0014654D01*
X0168009Y0015453D02*
X0168946Y0015453D01*
X0168946Y0016251D02*
X0167546Y0016251D01*
X0166748Y0017050D02*
X0168946Y0017050D01*
X0168946Y0017848D02*
X0165917Y0017848D01*
X0163990Y0018647D02*
X0168946Y0018647D01*
X0168946Y0019445D02*
X0146499Y0019445D01*
X0146499Y0018647D02*
X0160703Y0018647D01*
X0158775Y0017848D02*
X0146499Y0017848D01*
X0146499Y0017050D02*
X0157945Y0017050D01*
X0157147Y0016251D02*
X0146499Y0016251D01*
X0146499Y0015453D02*
X0156684Y0015453D01*
X0156353Y0014654D02*
X0146431Y0014654D01*
X0146499Y0014722D02*
X0146499Y0020598D01*
X0145796Y0021301D01*
X0138897Y0021301D01*
X0138194Y0020598D01*
X0138194Y0018966D01*
X0137909Y0018966D01*
X0137909Y0020125D01*
X0137206Y0020828D01*
X0131487Y0020828D01*
X0130784Y0020125D01*
X0130784Y0014407D01*
X0131487Y0013704D01*
X0137206Y0013704D01*
X0137909Y0014407D01*
X0137909Y0015566D01*
X0138194Y0015566D01*
X0138194Y0014722D01*
X0138897Y0014019D01*
X0145796Y0014019D01*
X0146499Y0014722D01*
X0138261Y0014654D02*
X0137909Y0014654D01*
X0137909Y0015453D02*
X0138194Y0015453D01*
X0137357Y0013856D02*
X0156022Y0013856D01*
X0155946Y0013057D02*
X0102720Y0013057D01*
X0102720Y0012259D02*
X0155946Y0012259D01*
X0155946Y0011460D02*
X0102229Y0011460D01*
X0102017Y0011247D02*
X0102720Y0011950D01*
X0102720Y0018850D01*
X0102017Y0019553D01*
X0098031Y0019553D01*
X0098031Y0024515D01*
X0098685Y0024515D01*
X0098685Y0024472D01*
X0099447Y0023711D01*
X0100442Y0022715D01*
X0107967Y0022715D01*
X0109389Y0024137D01*
X0109674Y0024019D01*
X0111019Y0024019D01*
X0112262Y0024534D01*
X0113213Y0025485D01*
X0113728Y0026727D01*
X0113728Y0028073D01*
X0113213Y0029315D01*
X0112262Y0030266D01*
X0111019Y0030781D01*
X0109674Y0030781D01*
X0108431Y0030266D01*
X0107924Y0029760D01*
X0107924Y0032118D01*
X0107385Y0032657D01*
X0108090Y0033361D01*
X0108629Y0032822D01*
X0115529Y0032822D01*
X0115580Y0032873D01*
X0121038Y0032873D01*
X0120480Y0032315D01*
X0119965Y0031073D01*
X0119965Y0029727D01*
X0120480Y0028485D01*
X0121431Y0027534D01*
X0122674Y0027019D01*
X0124019Y0027019D01*
X0125262Y0027534D01*
X0126213Y0028485D01*
X0126302Y0028700D01*
X0129152Y0028700D01*
X0129904Y0027948D01*
X0130584Y0027948D01*
X0130584Y0025934D01*
X0133946Y0025934D01*
X0133946Y0025134D01*
X0130584Y0025134D01*
X0130584Y0022987D01*
X0130680Y0022631D01*
X0130864Y0022312D01*
X0131125Y0022051D01*
X0131444Y0021867D01*
X0131800Y0021772D01*
X0133946Y0021772D01*
X0133946Y0025134D01*
X0134746Y0025134D01*
X0134746Y0021772D01*
X0136893Y0021772D01*
X0137249Y0021867D01*
X0137568Y0022051D01*
X0137829Y0022312D01*
X0138013Y0022631D01*
X0138109Y0022987D01*
X0138109Y0025134D01*
X0134746Y0025134D01*
X0134746Y0025934D01*
X0138109Y0025934D01*
X0138109Y0027948D01*
X0138194Y0027948D01*
X0138194Y0022202D01*
X0138897Y0021499D01*
X0145796Y0021499D01*
X0146499Y0022202D01*
X0146499Y0023440D01*
X0155791Y0023440D01*
X0164051Y0031700D01*
X0165046Y0032696D01*
X0165046Y0047554D01*
X0164051Y0048550D01*
X0163138Y0049462D01*
X0163246Y0049724D01*
X0163246Y0051076D01*
X0162729Y0052326D01*
X0162155Y0052900D01*
X0162729Y0053474D01*
X0163246Y0054724D01*
X0163246Y0056076D01*
X0162729Y0057326D01*
X0161772Y0058282D01*
X0160523Y0058800D01*
X0159170Y0058800D01*
X0158944Y0058706D01*
X0150291Y0067360D01*
X0146499Y0067360D01*
X0146499Y0068598D01*
X0145796Y0069301D01*
X0138897Y0069301D01*
X0138194Y0068598D01*
X0138194Y0062722D01*
X0138897Y0062019D01*
X0145184Y0062019D01*
X0144628Y0061463D01*
X0144113Y0060220D01*
X0144113Y0058875D01*
X0144458Y0058043D01*
X0143620Y0058043D01*
X0143620Y0054602D01*
X0142820Y0054602D01*
X0142820Y0053802D01*
X0138868Y0053802D01*
X0138868Y0053748D01*
X0135002Y0053748D01*
X0135002Y0054548D01*
X0134202Y0054548D01*
X0134202Y0053748D01*
X0130250Y0053748D01*
X0130250Y0051523D01*
X0130345Y0051167D01*
X0130529Y0050848D01*
X0130790Y0050587D01*
X0131109Y0050403D01*
X0131460Y0050309D01*
X0131153Y0050309D01*
X0130450Y0049606D01*
X0130450Y0043730D01*
X0131153Y0043027D01*
X0132358Y0043027D01*
X0132358Y0041428D01*
X0131396Y0041428D01*
X0130693Y0040725D01*
X0130693Y0038242D01*
X0116231Y0038242D01*
X0116231Y0038779D01*
X0120193Y0038779D01*
X0124641Y0043227D01*
X0129328Y0043227D01*
X0130030Y0043930D01*
X0130030Y0049806D01*
X0129328Y0050509D01*
X0129021Y0050509D01*
X0129371Y0050603D01*
X0129690Y0050787D01*
X0129951Y0051048D01*
X0130135Y0051367D01*
X0130230Y0051723D01*
X0130230Y0053948D01*
X0126278Y0053948D01*
X0126278Y0054748D01*
X0130230Y0054748D01*
X0130230Y0056973D01*
X0130135Y0057329D01*
X0129951Y0057649D01*
X0129690Y0057909D01*
X0129371Y0058094D01*
X0129015Y0058189D01*
X0126278Y0058189D01*
X0126278Y0054748D01*
X0125478Y0054748D01*
X0125478Y0058189D01*
X0122741Y0058189D01*
X0122385Y0058094D01*
X0122065Y0057909D01*
X0121805Y0057649D01*
X0121620Y0057329D01*
X0121525Y0056973D01*
X0121525Y0054748D01*
X0125478Y0054748D01*
X0125478Y0053948D01*
X0121525Y0053948D01*
X0121525Y0051723D01*
X0121620Y0051367D01*
X0121805Y0051048D01*
X0122065Y0050787D01*
X0122385Y0050603D01*
X0122735Y0050509D01*
X0122428Y0050509D01*
X0121725Y0049806D01*
X0121725Y0045119D01*
X0118784Y0042179D01*
X0116431Y0042179D01*
X0116431Y0042447D01*
X0112079Y0042447D01*
X0112079Y0042447D01*
X0116431Y0042447D01*
X0116431Y0043183D01*
X0116336Y0043539D01*
X0116231Y0043720D01*
X0116231Y0057275D01*
X0115529Y0057978D01*
X0108629Y0057978D01*
X0107926Y0057275D01*
X0107926Y0046216D01*
X0098728Y0046216D01*
X0098728Y0047073D01*
X0098680Y0047188D01*
X0099045Y0047553D01*
X0100099Y0048607D01*
X0100099Y0057980D01*
X0107221Y0057980D01*
X0107924Y0058682D01*
X0107924Y0065582D01*
X0107221Y0066285D01*
X0099999Y0066285D01*
X0099999Y0071247D01*
X0102025Y0071247D01*
X0102728Y0071950D01*
X0102728Y0078850D01*
X0102025Y0079553D01*
X0096149Y0079553D01*
X0095446Y0078850D01*
X0095446Y0078543D01*
X0095352Y0078893D01*
X0095168Y0079212D01*
X0094907Y0079473D01*
X0094588Y0079657D01*
X0094232Y0079753D01*
X0092006Y0079753D01*
X0092006Y0075800D01*
X0091206Y0075800D01*
X0091206Y0075000D01*
X0087765Y0075000D01*
X0087765Y0072263D01*
X0087861Y0071907D01*
X0088045Y0071588D01*
X0088306Y0071327D01*
X0088625Y0071143D01*
X0088981Y0071047D01*
X0091206Y0071047D01*
X0091206Y0075000D01*
X0092006Y0075000D01*
X0092006Y0071047D01*
X0094232Y0071047D01*
X0094588Y0071143D01*
X0094907Y0071327D01*
X0095168Y0071588D01*
X0095352Y0071907D01*
X0095446Y0072257D01*
X0095446Y0071950D01*
X0096149Y0071247D01*
X0096599Y0071247D01*
X0096599Y0066485D01*
X0096331Y0066485D01*
X0096331Y0062132D01*
X0096331Y0057780D01*
X0096499Y0057780D01*
X0096499Y0050098D01*
X0096134Y0049733D01*
X0096019Y0049781D01*
X0094674Y0049781D01*
X0093431Y0049266D01*
X0092480Y0048315D01*
X0091965Y0047073D01*
X0091965Y0045727D01*
X0092013Y0045612D01*
X0082967Y0036566D01*
X0082967Y0037277D01*
X0082872Y0037633D01*
X0082767Y0037814D01*
X0082767Y0057275D01*
X0082064Y0057978D01*
X0075164Y0057978D01*
X0074461Y0057275D01*
X0074461Y0042100D01*
X0068441Y0042100D01*
X0068329Y0042371D01*
X0067350Y0043350D01*
X0067084Y0043460D01*
X0067262Y0043534D01*
X0068213Y0044485D01*
X0068728Y0045727D01*
X0068728Y0047073D01*
X0068213Y0048315D01*
X0067262Y0049266D01*
X0066019Y0049781D01*
X0064674Y0049781D01*
X0063499Y0049295D01*
X0063499Y0049357D01*
X0062796Y0050060D01*
X0061146Y0050060D01*
X0061146Y0051771D01*
X0062796Y0051771D01*
X0063499Y0052474D01*
X0063499Y0058350D01*
X0062796Y0059053D01*
X0062489Y0059053D01*
X0062840Y0059147D01*
X0063159Y0059331D01*
X0063419Y0059592D01*
X0063604Y0059911D01*
X0063699Y0060267D01*
X0063699Y0062492D01*
X0059746Y0062492D01*
X0059746Y0063292D01*
X0058946Y0063292D01*
X0058946Y0062492D01*
X0054994Y0062492D01*
X0054994Y0060267D01*
X0055089Y0059911D01*
X0055273Y0059592D01*
X0055534Y0059331D01*
X0055853Y0059147D01*
X0056204Y0059053D01*
X0055897Y0059053D01*
X0055194Y0058350D01*
X0055194Y0053793D01*
X0053778Y0052377D01*
X0053778Y0058146D01*
X0053075Y0058848D01*
X0052768Y0058848D01*
X0053118Y0058942D01*
X0053437Y0059127D01*
X0053698Y0059387D01*
X0053882Y0059707D01*
X0053978Y0060063D01*
X0053978Y0062288D01*
X0050025Y0062288D01*
X0050025Y0063088D01*
X0049225Y0063088D01*
X0049225Y0066529D01*
X0046488Y0066529D01*
X0046132Y0066433D01*
X0045813Y0066249D01*
X0045552Y0065988D01*
X0045368Y0065669D01*
X0045272Y0065313D01*
X0045272Y0063088D01*
X0049225Y0063088D01*
X0049225Y0062288D01*
X0045272Y0062288D01*
X0045272Y0060063D01*
X0045368Y0059707D01*
X0045552Y0059387D01*
X0045813Y0059127D01*
X0046132Y0058942D01*
X0046482Y0058848D01*
X0046175Y0058848D01*
X0045472Y0058146D01*
X0045472Y0057160D01*
X0044999Y0057160D01*
X0044999Y0058098D01*
X0044296Y0058801D01*
X0043989Y0058801D01*
X0044340Y0058895D01*
X0044659Y0059079D01*
X0044919Y0059340D01*
X0045104Y0059659D01*
X0045199Y0060015D01*
X0045199Y0062240D01*
X0041246Y0062240D01*
X0041246Y0063040D01*
X0040446Y0063040D01*
X0040446Y0062240D01*
X0036494Y0062240D01*
X0036494Y0060015D01*
X0036589Y0059659D01*
X0036773Y0059340D01*
X0037034Y0059079D01*
X0037353Y0058895D01*
X0037704Y0058801D01*
X0037397Y0058801D01*
X0036694Y0058098D01*
X0036694Y0054333D01*
X0034488Y0052518D01*
X0033081Y0052518D01*
X0033081Y0053492D01*
X0032613Y0054621D01*
X0031749Y0055486D01*
X0030619Y0055954D01*
X0029397Y0055954D01*
X0028267Y0055486D01*
X0027403Y0054621D01*
X0026935Y0053492D01*
X0026935Y0052269D01*
X0027403Y0051139D01*
X0028020Y0050522D01*
X0028020Y0041791D01*
X0027916Y0041610D01*
X0027820Y0041254D01*
X0027820Y0040282D01*
X0028024Y0040282D01*
X0028024Y0040282D01*
X0027820Y0040282D01*
X0027820Y0040078D01*
X0027403Y0039661D01*
X0026935Y0038531D01*
X0026935Y0037308D01*
X0027403Y0036179D01*
X0028267Y0035314D01*
X0029397Y0034846D01*
X0030619Y0034846D01*
X0031749Y0035314D01*
X0032613Y0036179D01*
X0033081Y0037308D01*
X0033081Y0038094D01*
X0035113Y0038094D01*
X0035470Y0038190D01*
X0035789Y0038374D01*
X0036049Y0038635D01*
X0036234Y0038954D01*
X0036329Y0039310D01*
X0036329Y0039497D01*
X0036375Y0039450D01*
X0037654Y0038920D01*
X0039039Y0038920D01*
X0040276Y0039433D01*
X0040276Y0036496D01*
X0042676Y0034096D01*
X0042676Y0031782D01*
X0042969Y0031489D01*
X0042232Y0031489D01*
X0041529Y0030786D01*
X0041529Y0023886D01*
X0042232Y0023183D01*
X0048108Y0023183D01*
X0048811Y0023886D01*
X0048811Y0030786D01*
X0048557Y0031040D01*
X0048557Y0034500D01*
X0048840Y0034500D01*
X0048840Y0030879D01*
X0049103Y0030879D01*
X0049010Y0030786D01*
X0049010Y0023886D01*
X0049713Y0023183D01*
X0055589Y0023183D01*
X0056292Y0023886D01*
X0056292Y0030786D01*
X0055589Y0031489D01*
X0054428Y0031489D01*
X0054721Y0031782D01*
X0054721Y0037501D01*
X0054018Y0038204D01*
X0050859Y0038204D01*
X0050710Y0038055D01*
X0050641Y0038124D01*
X0050322Y0038308D01*
X0049965Y0038404D01*
X0048840Y0038404D01*
X0048840Y0034783D01*
X0048557Y0034783D01*
X0048557Y0038404D01*
X0047431Y0038404D01*
X0047075Y0038308D01*
X0046756Y0038124D01*
X0046687Y0038055D01*
X0046538Y0038204D01*
X0044276Y0038204D01*
X0044276Y0041316D01*
X0046538Y0041316D01*
X0047241Y0042019D01*
X0047241Y0044616D01*
X0050156Y0047531D01*
X0050156Y0042019D01*
X0050859Y0041316D01*
X0054018Y0041316D01*
X0054721Y0042019D01*
X0054721Y0047738D01*
X0054018Y0048441D01*
X0051066Y0048441D01*
X0051225Y0048600D01*
X0055092Y0048600D01*
X0055194Y0048702D01*
X0055194Y0043481D01*
X0055897Y0042778D01*
X0056204Y0042778D01*
X0055853Y0042685D01*
X0055534Y0042500D01*
X0055273Y0042240D01*
X0055089Y0041920D01*
X0054994Y0041564D01*
X0054994Y0039339D01*
X0058946Y0039339D01*
X0058946Y0038539D01*
X0054994Y0038539D01*
X0054994Y0036314D01*
X0055089Y0035958D01*
X0055273Y0035638D01*
X0055534Y0035378D01*
X0055853Y0035194D01*
X0056209Y0035098D01*
X0058946Y0035098D01*
X0058946Y0038539D01*
X0059746Y0038539D01*
X0059746Y0035098D01*
X0061867Y0035098D01*
X0061867Y0034349D01*
X0062397Y0033070D01*
X0063375Y0032091D01*
X0064654Y0031561D01*
X0066039Y0031561D01*
X0067317Y0032091D01*
X0068296Y0033070D01*
X0068826Y0034349D01*
X0068826Y0034475D01*
X0071161Y0036810D01*
X0074261Y0036810D01*
X0074261Y0036542D01*
X0078614Y0036542D01*
X0078614Y0036542D01*
X0074261Y0036542D01*
X0074261Y0035806D01*
X0074357Y0035450D01*
X0074461Y0035269D01*
X0074461Y0033525D01*
X0075164Y0032822D01*
X0077820Y0032822D01*
X0077869Y0032773D01*
X0083424Y0032773D01*
X0082769Y0032118D01*
X0082769Y0025218D01*
X0083471Y0024515D01*
X0093089Y0024515D01*
X0093271Y0024410D01*
X0093627Y0024315D01*
X0094362Y0024315D01*
X0094362Y0028668D01*
X0094362Y0033020D01*
X0094362Y0033020D01*
X0093627Y0033020D01*
X0093271Y0032925D01*
X0093089Y0032820D01*
X0092125Y0032820D01*
X0092125Y0033019D01*
X0093019Y0033019D01*
X0094262Y0033534D01*
X0095213Y0034485D01*
X0095728Y0035727D01*
X0095728Y0037073D01*
X0095213Y0038315D01*
X0094262Y0039266D01*
X0093019Y0039781D01*
X0091674Y0039781D01*
X0090990Y0039498D01*
X0094559Y0043067D01*
X0094674Y0043019D01*
X0096019Y0043019D01*
X0096134Y0043067D01*
X0096499Y0042702D01*
X0096499Y0032820D01*
X0095635Y0032820D01*
X0095454Y0032925D01*
X0095098Y0033020D01*
X0094362Y0033020D01*
X0094362Y0028668D01*
X0094362Y0028668D01*
X0094362Y0028668D01*
X0094362Y0024315D01*
X0094631Y0024315D01*
X0094631Y0019628D01*
X0094580Y0019657D01*
X0094224Y0019753D01*
X0091998Y0019753D01*
X0091998Y0015800D01*
X0091198Y0015800D01*
X0091198Y0015000D01*
X0087757Y0015000D01*
X0087757Y0012263D01*
X0087853Y0011907D01*
X0088037Y0011588D01*
X0088298Y0011327D01*
X0088617Y0011143D01*
X0088973Y0011047D01*
X0091198Y0011047D01*
X0091198Y0015000D01*
X0091998Y0015000D01*
X0091998Y0011047D01*
X0094224Y0011047D01*
X0094580Y0011143D01*
X0094899Y0011327D01*
X0095160Y0011588D01*
X0095344Y0011907D01*
X0095438Y0012257D01*
X0095438Y0011950D01*
X0096141Y0011247D01*
X0102017Y0011247D01*
X0102720Y0013856D02*
X0131336Y0013856D01*
X0130784Y0014654D02*
X0102720Y0014654D01*
X0102720Y0015453D02*
X0116981Y0015453D01*
X0118073Y0015000D02*
X0115721Y0015974D01*
X0113921Y0017775D01*
X0112946Y0020127D01*
X0112946Y0022673D01*
X0113921Y0025025D01*
X0115721Y0026826D01*
X0118073Y0027800D01*
X0120619Y0027800D01*
X0122972Y0026826D01*
X0124772Y0025025D01*
X0125746Y0022673D01*
X0125746Y0020127D01*
X0124772Y0017775D01*
X0122972Y0015974D01*
X0120619Y0015000D01*
X0118073Y0015000D01*
X0121712Y0015453D02*
X0130784Y0015453D01*
X0130784Y0016251D02*
X0123249Y0016251D01*
X0124047Y0017050D02*
X0130784Y0017050D01*
X0130784Y0017848D02*
X0124803Y0017848D01*
X0125133Y0018647D02*
X0130784Y0018647D01*
X0130784Y0019445D02*
X0125464Y0019445D01*
X0125746Y0020244D02*
X0130903Y0020244D01*
X0131542Y0021841D02*
X0125746Y0021841D01*
X0125746Y0022639D02*
X0130678Y0022639D01*
X0130584Y0023438D02*
X0125430Y0023438D01*
X0125099Y0024236D02*
X0130584Y0024236D01*
X0130584Y0025035D02*
X0124763Y0025035D01*
X0123964Y0025833D02*
X0133946Y0025833D01*
X0133946Y0025035D02*
X0134746Y0025035D01*
X0134746Y0025833D02*
X0138194Y0025833D01*
X0138194Y0025035D02*
X0138109Y0025035D01*
X0138109Y0024236D02*
X0138194Y0024236D01*
X0138194Y0023438D02*
X0138109Y0023438D01*
X0138194Y0022639D02*
X0138015Y0022639D01*
X0138555Y0021841D02*
X0137151Y0021841D01*
X0138638Y0021042D02*
X0125746Y0021042D01*
X0123166Y0026632D02*
X0130584Y0026632D01*
X0130584Y0027430D02*
X0125012Y0027430D01*
X0125957Y0028229D02*
X0129623Y0028229D01*
X0133946Y0024236D02*
X0134746Y0024236D01*
X0134746Y0023438D02*
X0133946Y0023438D01*
X0133946Y0022639D02*
X0134746Y0022639D01*
X0134746Y0021841D02*
X0133946Y0021841D01*
X0137790Y0020244D02*
X0138194Y0020244D01*
X0138194Y0019445D02*
X0137909Y0019445D01*
X0146055Y0021042D02*
X0168946Y0021042D01*
X0168946Y0020244D02*
X0146499Y0020244D01*
X0146138Y0021841D02*
X0168946Y0021841D01*
X0168946Y0022639D02*
X0146499Y0022639D01*
X0146499Y0023438D02*
X0168946Y0023438D01*
X0168946Y0024236D02*
X0156587Y0024236D01*
X0157385Y0025035D02*
X0168946Y0025035D01*
X0168946Y0025833D02*
X0158184Y0025833D01*
X0158982Y0026632D02*
X0168946Y0026632D01*
X0168946Y0027430D02*
X0159781Y0027430D01*
X0160579Y0028229D02*
X0168946Y0028229D01*
X0168946Y0029027D02*
X0161378Y0029027D01*
X0162176Y0029826D02*
X0168946Y0029826D01*
X0168946Y0030624D02*
X0162975Y0030624D01*
X0163773Y0031423D02*
X0168946Y0031423D01*
X0168946Y0032221D02*
X0164572Y0032221D01*
X0165046Y0033020D02*
X0168946Y0033020D01*
X0168946Y0033818D02*
X0165046Y0033818D01*
X0165046Y0034617D02*
X0168946Y0034617D01*
X0168946Y0035415D02*
X0165046Y0035415D01*
X0165046Y0036214D02*
X0168946Y0036214D01*
X0168946Y0037012D02*
X0165046Y0037012D01*
X0165046Y0037811D02*
X0168946Y0037811D01*
X0168946Y0038609D02*
X0165046Y0038609D01*
X0165046Y0039408D02*
X0168946Y0039408D01*
X0168946Y0040206D02*
X0165046Y0040206D01*
X0165046Y0041005D02*
X0168946Y0041005D01*
X0168946Y0041803D02*
X0165046Y0041803D01*
X0165046Y0042602D02*
X0168946Y0042602D01*
X0168946Y0043401D02*
X0165046Y0043401D01*
X0165046Y0044199D02*
X0168946Y0044199D01*
X0168946Y0044998D02*
X0165046Y0044998D01*
X0165046Y0045796D02*
X0168946Y0045796D01*
X0168946Y0046595D02*
X0165046Y0046595D01*
X0165046Y0047393D02*
X0168946Y0047393D01*
X0168946Y0048192D02*
X0164409Y0048192D01*
X0163610Y0048990D02*
X0168946Y0048990D01*
X0168946Y0049789D02*
X0163246Y0049789D01*
X0163246Y0050587D02*
X0168946Y0050587D01*
X0168946Y0051386D02*
X0163118Y0051386D01*
X0162788Y0052184D02*
X0168946Y0052184D01*
X0168946Y0052983D02*
X0162237Y0052983D01*
X0162856Y0053781D02*
X0168946Y0053781D01*
X0168946Y0054580D02*
X0163187Y0054580D01*
X0163246Y0055378D02*
X0168946Y0055378D01*
X0168946Y0056177D02*
X0163205Y0056177D01*
X0162874Y0056975D02*
X0168946Y0056975D01*
X0168946Y0057774D02*
X0162281Y0057774D01*
X0161073Y0058572D02*
X0168946Y0058572D01*
X0168946Y0059371D02*
X0158280Y0059371D01*
X0157481Y0060169D02*
X0168946Y0060169D01*
X0168946Y0060968D02*
X0156683Y0060968D01*
X0155884Y0061766D02*
X0168946Y0061766D01*
X0168946Y0062565D02*
X0155086Y0062565D01*
X0154287Y0063363D02*
X0168946Y0063363D01*
X0168946Y0064162D02*
X0153489Y0064162D01*
X0152690Y0064960D02*
X0168946Y0064960D01*
X0168946Y0065759D02*
X0151892Y0065759D01*
X0151093Y0066557D02*
X0168946Y0066557D01*
X0168946Y0067356D02*
X0150295Y0067356D01*
X0146499Y0068154D02*
X0168946Y0068154D01*
X0168946Y0068953D02*
X0146144Y0068953D01*
X0145796Y0069499D02*
X0146499Y0070202D01*
X0146499Y0076078D01*
X0145796Y0076781D01*
X0138897Y0076781D01*
X0138194Y0076078D01*
X0138194Y0075234D01*
X0137909Y0075234D01*
X0137909Y0076393D01*
X0137206Y0077096D01*
X0131487Y0077096D01*
X0130784Y0076393D01*
X0130784Y0070675D01*
X0131487Y0069972D01*
X0137206Y0069972D01*
X0137909Y0070675D01*
X0137909Y0071834D01*
X0138194Y0071834D01*
X0138194Y0070202D01*
X0138897Y0069499D01*
X0145796Y0069499D01*
X0146048Y0069751D02*
X0168946Y0069751D01*
X0168946Y0070550D02*
X0146499Y0070550D01*
X0146499Y0071348D02*
X0168946Y0071348D01*
X0168946Y0072147D02*
X0163974Y0072147D01*
X0163619Y0072000D02*
X0165972Y0072974D01*
X0167772Y0074775D01*
X0168746Y0077127D01*
X0168746Y0079673D01*
X0167772Y0082025D01*
X0165972Y0083826D01*
X0163619Y0084800D01*
X0161073Y0084800D01*
X0158721Y0083826D01*
X0156921Y0082025D01*
X0155946Y0079673D01*
X0155946Y0077127D01*
X0156921Y0074775D01*
X0158721Y0072974D01*
X0161073Y0072000D01*
X0163619Y0072000D01*
X0165902Y0072945D02*
X0168946Y0072945D01*
X0168946Y0073744D02*
X0166741Y0073744D01*
X0167540Y0074542D02*
X0168946Y0074542D01*
X0168946Y0075341D02*
X0168007Y0075341D01*
X0168337Y0076139D02*
X0168946Y0076139D01*
X0168946Y0076938D02*
X0168668Y0076938D01*
X0168746Y0077737D02*
X0168946Y0077737D01*
X0168946Y0078535D02*
X0168746Y0078535D01*
X0168746Y0079334D02*
X0168946Y0079334D01*
X0168891Y0080132D02*
X0168556Y0080132D01*
X0168718Y0080931D02*
X0168226Y0080931D01*
X0168387Y0081729D02*
X0167895Y0081729D01*
X0168056Y0082528D02*
X0167270Y0082528D01*
X0167293Y0083326D02*
X0166471Y0083326D01*
X0166439Y0084125D02*
X0165250Y0084125D01*
X0164299Y0084923D02*
X0019394Y0084923D01*
X0020073Y0084800D02*
X0017721Y0083826D01*
X0015921Y0082025D01*
X0014946Y0079673D01*
X0014946Y0077127D01*
X0015921Y0074775D01*
X0017721Y0072974D01*
X0020073Y0072000D01*
X0022619Y0072000D01*
X0024972Y0072974D01*
X0026772Y0074775D01*
X0027746Y0077127D01*
X0027746Y0079673D01*
X0026772Y0082025D01*
X0024972Y0083826D01*
X0022619Y0084800D01*
X0020073Y0084800D01*
X0018443Y0084125D02*
X0017254Y0084125D01*
X0017222Y0083326D02*
X0016400Y0083326D01*
X0016423Y0082528D02*
X0015636Y0082528D01*
X0015798Y0081729D02*
X0015306Y0081729D01*
X0015467Y0080931D02*
X0014975Y0080931D01*
X0015137Y0080132D02*
X0014802Y0080132D01*
X0014746Y0079334D02*
X0014946Y0079334D01*
X0014946Y0078535D02*
X0014746Y0078535D01*
X0014746Y0077737D02*
X0014946Y0077737D01*
X0015025Y0076938D02*
X0014746Y0076938D01*
X0014746Y0076139D02*
X0015355Y0076139D01*
X0015686Y0075341D02*
X0014746Y0075341D01*
X0014746Y0074542D02*
X0016153Y0074542D01*
X0016952Y0073744D02*
X0014746Y0073744D01*
X0014746Y0072945D02*
X0017791Y0072945D01*
X0019719Y0072147D02*
X0014746Y0072147D01*
X0014746Y0071348D02*
X0065946Y0071348D01*
X0065946Y0070550D02*
X0014746Y0070550D01*
X0014746Y0069751D02*
X0065946Y0069751D01*
X0065946Y0068953D02*
X0014746Y0068953D01*
X0014746Y0068154D02*
X0065946Y0068154D01*
X0065946Y0067356D02*
X0014746Y0067356D01*
X0014746Y0066557D02*
X0055714Y0066557D01*
X0055853Y0066638D02*
X0055534Y0066454D01*
X0055273Y0066193D01*
X0055089Y0065874D01*
X0054994Y0065518D01*
X0054994Y0063292D01*
X0058946Y0063292D01*
X0058946Y0066733D01*
X0056209Y0066733D01*
X0055853Y0066638D01*
X0055058Y0065759D02*
X0053831Y0065759D01*
X0053882Y0065669D02*
X0053698Y0065988D01*
X0053437Y0066249D01*
X0053118Y0066433D01*
X0052762Y0066529D01*
X0050025Y0066529D01*
X0050025Y0063088D01*
X0053978Y0063088D01*
X0053978Y0065313D01*
X0053882Y0065669D01*
X0053978Y0064960D02*
X0054994Y0064960D01*
X0054994Y0064162D02*
X0053978Y0064162D01*
X0053978Y0063363D02*
X0054994Y0063363D01*
X0054994Y0061766D02*
X0053978Y0061766D01*
X0053978Y0060968D02*
X0054994Y0060968D01*
X0055020Y0060169D02*
X0053978Y0060169D01*
X0053681Y0059371D02*
X0055495Y0059371D01*
X0055416Y0058572D02*
X0053351Y0058572D01*
X0053778Y0057774D02*
X0055194Y0057774D01*
X0055194Y0056975D02*
X0053778Y0056975D01*
X0053778Y0056177D02*
X0055194Y0056177D01*
X0055194Y0055378D02*
X0053778Y0055378D01*
X0053778Y0054580D02*
X0055194Y0054580D01*
X0055182Y0053781D02*
X0053778Y0053781D01*
X0053778Y0052983D02*
X0054384Y0052983D01*
X0061146Y0051386D02*
X0074461Y0051386D01*
X0074461Y0052184D02*
X0063209Y0052184D01*
X0063499Y0052983D02*
X0074461Y0052983D01*
X0074461Y0053781D02*
X0063499Y0053781D01*
X0063499Y0054580D02*
X0074461Y0054580D01*
X0074461Y0055378D02*
X0063499Y0055378D01*
X0063499Y0056177D02*
X0074461Y0056177D01*
X0074461Y0056975D02*
X0063499Y0056975D01*
X0063499Y0057774D02*
X0074960Y0057774D01*
X0082268Y0057774D02*
X0096499Y0057774D01*
X0096331Y0057780D02*
X0096331Y0062132D01*
X0096331Y0062132D01*
X0096331Y0062132D01*
X0096331Y0066485D01*
X0095595Y0066485D01*
X0095239Y0066390D01*
X0095058Y0066285D01*
X0083471Y0066285D01*
X0082769Y0065582D01*
X0082769Y0058682D01*
X0083471Y0057980D01*
X0095058Y0057980D01*
X0095239Y0057875D01*
X0095595Y0057780D01*
X0096331Y0057780D01*
X0096331Y0058572D02*
X0096331Y0058572D01*
X0096331Y0059371D02*
X0096331Y0059371D01*
X0096331Y0060169D02*
X0096331Y0060169D01*
X0096331Y0060968D02*
X0096331Y0060968D01*
X0096331Y0061766D02*
X0096331Y0061766D01*
X0096331Y0062565D02*
X0096331Y0062565D01*
X0096331Y0063363D02*
X0096331Y0063363D01*
X0096331Y0064162D02*
X0096331Y0064162D01*
X0096331Y0064960D02*
X0096331Y0064960D01*
X0096331Y0065759D02*
X0096331Y0065759D01*
X0096599Y0066557D02*
X0076746Y0066557D01*
X0076746Y0065759D02*
X0082945Y0065759D01*
X0082769Y0064960D02*
X0076746Y0064960D01*
X0076746Y0064820D02*
X0076746Y0073980D01*
X0075926Y0074800D01*
X0066767Y0074800D01*
X0065946Y0073980D01*
X0065946Y0072820D01*
X0065946Y0065980D01*
X0065946Y0064820D01*
X0066767Y0064000D01*
X0075926Y0064000D01*
X0076746Y0064820D01*
X0076088Y0064162D02*
X0082769Y0064162D01*
X0082769Y0063363D02*
X0063699Y0063363D01*
X0063699Y0063292D02*
X0063699Y0065518D01*
X0063604Y0065874D01*
X0063419Y0066193D01*
X0063159Y0066454D01*
X0062840Y0066638D01*
X0062484Y0066733D01*
X0059746Y0066733D01*
X0059746Y0063292D01*
X0063699Y0063292D01*
X0063699Y0064162D02*
X0066605Y0064162D01*
X0065946Y0064960D02*
X0063699Y0064960D01*
X0063635Y0065759D02*
X0065946Y0065759D01*
X0065946Y0066557D02*
X0062979Y0066557D01*
X0059746Y0066557D02*
X0058946Y0066557D01*
X0058946Y0065759D02*
X0059746Y0065759D01*
X0059746Y0064960D02*
X0058946Y0064960D01*
X0058946Y0064162D02*
X0059746Y0064162D01*
X0059746Y0063363D02*
X0058946Y0063363D01*
X0058946Y0062565D02*
X0050025Y0062565D01*
X0050025Y0063363D02*
X0049225Y0063363D01*
X0049225Y0062565D02*
X0041246Y0062565D01*
X0041246Y0063040D02*
X0045199Y0063040D01*
X0045199Y0065265D01*
X0045104Y0065621D01*
X0044919Y0065941D01*
X0044659Y0066201D01*
X0044340Y0066386D01*
X0043984Y0066481D01*
X0041246Y0066481D01*
X0041246Y0063040D01*
X0041246Y0063363D02*
X0040446Y0063363D01*
X0040446Y0063040D02*
X0040446Y0066481D01*
X0037709Y0066481D01*
X0037353Y0066386D01*
X0037034Y0066201D01*
X0036773Y0065941D01*
X0036589Y0065621D01*
X0036494Y0065265D01*
X0036494Y0063040D01*
X0040446Y0063040D01*
X0040446Y0062565D02*
X0025699Y0062565D01*
X0025699Y0063363D02*
X0036494Y0063363D01*
X0036494Y0064162D02*
X0025505Y0064162D01*
X0025419Y0064311D02*
X0025604Y0063992D01*
X0025699Y0063635D01*
X0025699Y0060308D01*
X0021746Y0060308D01*
X0020946Y0060308D01*
X0020946Y0059508D01*
X0016994Y0059508D01*
X0016994Y0056180D01*
X0017089Y0055824D01*
X0017273Y0055505D01*
X0017534Y0055244D01*
X0017853Y0055060D01*
X0018209Y0054965D01*
X0020946Y0054965D01*
X0020946Y0059508D01*
X0021746Y0059508D01*
X0021746Y0054965D01*
X0024484Y0054965D01*
X0024840Y0055060D01*
X0025159Y0055244D01*
X0025419Y0055505D01*
X0025604Y0055824D01*
X0025699Y0056180D01*
X0025699Y0059508D01*
X0021746Y0059508D01*
X0021746Y0060308D01*
X0021746Y0064851D01*
X0024484Y0064851D01*
X0024840Y0064756D01*
X0025159Y0064571D01*
X0025419Y0064311D01*
X0021746Y0064162D02*
X0020946Y0064162D01*
X0020946Y0064851D02*
X0018209Y0064851D01*
X0017853Y0064756D01*
X0017534Y0064571D01*
X0017273Y0064311D01*
X0017089Y0063992D01*
X0016994Y0063635D01*
X0016994Y0060308D01*
X0020946Y0060308D01*
X0020946Y0064851D01*
X0020946Y0063363D02*
X0021746Y0063363D01*
X0021746Y0062565D02*
X0020946Y0062565D01*
X0020946Y0061766D02*
X0021746Y0061766D01*
X0021746Y0060968D02*
X0020946Y0060968D01*
X0020946Y0060169D02*
X0014746Y0060169D01*
X0014746Y0059371D02*
X0016994Y0059371D01*
X0016994Y0058572D02*
X0014746Y0058572D01*
X0014746Y0057774D02*
X0016994Y0057774D01*
X0016994Y0056975D02*
X0014746Y0056975D01*
X0014746Y0056177D02*
X0016995Y0056177D01*
X0017400Y0055378D02*
X0015348Y0055378D01*
X0016147Y0054580D02*
X0027385Y0054580D01*
X0027055Y0053781D02*
X0016446Y0053781D01*
X0016446Y0052983D02*
X0026935Y0052983D01*
X0026970Y0052184D02*
X0016446Y0052184D01*
X0016446Y0051386D02*
X0017478Y0051386D01*
X0017534Y0051442D02*
X0017273Y0051181D01*
X0017089Y0050862D01*
X0016994Y0050506D01*
X0016994Y0045800D01*
X0020946Y0045800D01*
X0020946Y0045000D01*
X0016994Y0045000D01*
X0016994Y0040294D01*
X0017089Y0039938D01*
X0017273Y0039619D01*
X0017534Y0039358D01*
X0017853Y0039174D01*
X0018209Y0039079D01*
X0020946Y0039079D01*
X0020946Y0045000D01*
X0021746Y0045000D01*
X0021746Y0039079D01*
X0024484Y0039079D01*
X0024840Y0039174D01*
X0025159Y0039358D01*
X0025419Y0039619D01*
X0025604Y0039938D01*
X0025699Y0040294D01*
X0025699Y0045000D01*
X0021746Y0045000D01*
X0021746Y0045800D01*
X0020946Y0045800D01*
X0020946Y0051721D01*
X0018209Y0051721D01*
X0017853Y0051626D01*
X0017534Y0051442D01*
X0017016Y0050587D02*
X0016446Y0050587D01*
X0016446Y0049789D02*
X0016994Y0049789D01*
X0016994Y0048990D02*
X0016446Y0048990D01*
X0016446Y0048192D02*
X0016994Y0048192D01*
X0016994Y0047393D02*
X0016446Y0047393D01*
X0016446Y0046595D02*
X0016994Y0046595D01*
X0016446Y0045796D02*
X0020946Y0045796D01*
X0020946Y0044998D02*
X0021746Y0044998D01*
X0021746Y0045796D02*
X0028020Y0045796D01*
X0028020Y0044998D02*
X0025699Y0044998D01*
X0025699Y0044199D02*
X0028020Y0044199D01*
X0028020Y0043401D02*
X0025699Y0043401D01*
X0025699Y0042602D02*
X0028020Y0042602D01*
X0028020Y0041803D02*
X0025699Y0041803D01*
X0025699Y0041005D02*
X0027820Y0041005D01*
X0027820Y0040206D02*
X0025676Y0040206D01*
X0025208Y0039408D02*
X0027298Y0039408D01*
X0026967Y0038609D02*
X0016446Y0038609D01*
X0016446Y0037811D02*
X0026935Y0037811D01*
X0027057Y0037012D02*
X0016446Y0037012D01*
X0016140Y0036214D02*
X0027388Y0036214D01*
X0028166Y0035415D02*
X0025299Y0035415D01*
X0025419Y0035295D02*
X0025159Y0035556D01*
X0024840Y0035740D01*
X0024484Y0035835D01*
X0021746Y0035835D01*
X0021746Y0031292D01*
X0020946Y0031292D01*
X0020946Y0030492D01*
X0016994Y0030492D01*
X0016994Y0027164D01*
X0017089Y0026808D01*
X0017273Y0026489D01*
X0017534Y0026229D01*
X0017853Y0026044D01*
X0018209Y0025949D01*
X0020946Y0025949D01*
X0020946Y0030492D01*
X0021746Y0030492D01*
X0021746Y0025949D01*
X0024484Y0025949D01*
X0024840Y0026044D01*
X0025159Y0026229D01*
X0025419Y0026489D01*
X0025604Y0026808D01*
X0025699Y0027164D01*
X0025699Y0030492D01*
X0021746Y0030492D01*
X0021746Y0031292D01*
X0025699Y0031292D01*
X0025699Y0034620D01*
X0025604Y0034976D01*
X0025419Y0035295D01*
X0025699Y0034617D02*
X0042154Y0034617D01*
X0042676Y0033818D02*
X0025699Y0033818D01*
X0025699Y0033020D02*
X0042676Y0033020D01*
X0042676Y0032221D02*
X0025699Y0032221D01*
X0025699Y0031423D02*
X0042166Y0031423D01*
X0041529Y0030624D02*
X0021746Y0030624D01*
X0021746Y0029826D02*
X0020946Y0029826D01*
X0020946Y0030624D02*
X0014746Y0030624D01*
X0014746Y0029826D02*
X0016994Y0029826D01*
X0016994Y0029027D02*
X0014746Y0029027D01*
X0014746Y0028229D02*
X0016994Y0028229D01*
X0016994Y0027430D02*
X0014746Y0027430D01*
X0014746Y0026632D02*
X0017191Y0026632D01*
X0020946Y0026632D02*
X0021746Y0026632D01*
X0021746Y0027430D02*
X0020946Y0027430D01*
X0020946Y0028229D02*
X0021746Y0028229D01*
X0021746Y0029027D02*
X0020946Y0029027D01*
X0020946Y0031292D02*
X0016994Y0031292D01*
X0016994Y0034620D01*
X0017089Y0034976D01*
X0017273Y0035295D01*
X0017534Y0035556D01*
X0017853Y0035740D01*
X0018209Y0035835D01*
X0020946Y0035835D01*
X0020946Y0031292D01*
X0020946Y0031423D02*
X0021746Y0031423D01*
X0021746Y0032221D02*
X0020946Y0032221D01*
X0020946Y0033020D02*
X0021746Y0033020D01*
X0021746Y0033818D02*
X0020946Y0033818D01*
X0020946Y0034617D02*
X0021746Y0034617D01*
X0021746Y0035415D02*
X0020946Y0035415D01*
X0017394Y0035415D02*
X0015342Y0035415D01*
X0014746Y0034617D02*
X0016994Y0034617D01*
X0016994Y0033818D02*
X0014746Y0033818D01*
X0014746Y0033020D02*
X0016994Y0033020D01*
X0016994Y0032221D02*
X0014746Y0032221D01*
X0014746Y0031423D02*
X0016994Y0031423D01*
X0014746Y0025833D02*
X0041529Y0025833D01*
X0041529Y0025035D02*
X0014746Y0025035D01*
X0014746Y0024236D02*
X0041529Y0024236D01*
X0041978Y0023438D02*
X0014746Y0023438D01*
X0014746Y0022639D02*
X0065946Y0022639D01*
X0065946Y0021841D02*
X0014746Y0021841D01*
X0014746Y0021042D02*
X0065946Y0021042D01*
X0065946Y0020244D02*
X0014746Y0020244D01*
X0014746Y0019445D02*
X0065946Y0019445D01*
X0065946Y0018647D02*
X0022990Y0018647D01*
X0024917Y0017848D02*
X0065946Y0017848D01*
X0065946Y0017980D02*
X0065946Y0024820D01*
X0065946Y0025980D01*
X0066767Y0026800D01*
X0075926Y0026800D01*
X0076746Y0025980D01*
X0076746Y0016820D01*
X0075926Y0016000D01*
X0066767Y0016000D01*
X0065946Y0016820D01*
X0065946Y0017980D01*
X0065946Y0017050D02*
X0025748Y0017050D01*
X0026546Y0016251D02*
X0066515Y0016251D01*
X0076177Y0016251D02*
X0087757Y0016251D01*
X0087757Y0015800D02*
X0091198Y0015800D01*
X0091198Y0019753D01*
X0088973Y0019753D01*
X0088617Y0019657D01*
X0088298Y0019473D01*
X0088037Y0019212D01*
X0087853Y0018893D01*
X0087757Y0018537D01*
X0087757Y0015800D01*
X0087757Y0014654D02*
X0027340Y0014654D01*
X0027671Y0013856D02*
X0087757Y0013856D01*
X0087757Y0013057D02*
X0027746Y0013057D01*
X0027746Y0012259D02*
X0087759Y0012259D01*
X0088165Y0011460D02*
X0027746Y0011460D01*
X0027554Y0010662D02*
X0156139Y0010662D01*
X0156470Y0009863D02*
X0027223Y0009863D01*
X0026892Y0009065D02*
X0156801Y0009065D01*
X0157429Y0008266D02*
X0026263Y0008266D01*
X0025465Y0007468D02*
X0158228Y0007468D01*
X0159458Y0006669D02*
X0024235Y0006669D01*
X0015139Y0010662D02*
X0014802Y0010662D01*
X0014746Y0011460D02*
X0014946Y0011460D01*
X0014946Y0012259D02*
X0014746Y0012259D01*
X0014746Y0013057D02*
X0014946Y0013057D01*
X0015022Y0013856D02*
X0014746Y0013856D01*
X0014746Y0014654D02*
X0015353Y0014654D01*
X0015684Y0015453D02*
X0014746Y0015453D01*
X0014746Y0016251D02*
X0016147Y0016251D01*
X0016945Y0017050D02*
X0014746Y0017050D01*
X0014746Y0017848D02*
X0017775Y0017848D01*
X0019703Y0018647D02*
X0014746Y0018647D01*
X0027009Y0015453D02*
X0091198Y0015453D01*
X0091198Y0016251D02*
X0091998Y0016251D01*
X0091998Y0017050D02*
X0091198Y0017050D01*
X0091198Y0017848D02*
X0091998Y0017848D01*
X0091998Y0018647D02*
X0091198Y0018647D01*
X0091198Y0019445D02*
X0091998Y0019445D01*
X0088270Y0019445D02*
X0076746Y0019445D01*
X0076746Y0018647D02*
X0087787Y0018647D01*
X0087757Y0017848D02*
X0076746Y0017848D01*
X0076746Y0017050D02*
X0087757Y0017050D01*
X0091198Y0014654D02*
X0091998Y0014654D01*
X0091998Y0013856D02*
X0091198Y0013856D01*
X0091198Y0013057D02*
X0091998Y0013057D01*
X0091998Y0012259D02*
X0091198Y0012259D01*
X0091198Y0011460D02*
X0091998Y0011460D01*
X0095032Y0011460D02*
X0095928Y0011460D01*
X0102720Y0016251D02*
X0115444Y0016251D01*
X0114646Y0017050D02*
X0102720Y0017050D01*
X0102720Y0017848D02*
X0113890Y0017848D01*
X0113560Y0018647D02*
X0102720Y0018647D01*
X0102124Y0019445D02*
X0113229Y0019445D01*
X0112946Y0020244D02*
X0098031Y0020244D01*
X0098031Y0021042D02*
X0112946Y0021042D01*
X0112946Y0021841D02*
X0098031Y0021841D01*
X0098031Y0022639D02*
X0112946Y0022639D01*
X0113263Y0023438D02*
X0108690Y0023438D01*
X0111544Y0024236D02*
X0113594Y0024236D01*
X0113930Y0025035D02*
X0112763Y0025035D01*
X0113357Y0025833D02*
X0114729Y0025833D01*
X0115527Y0026632D02*
X0113688Y0026632D01*
X0113728Y0027430D02*
X0117181Y0027430D01*
X0113663Y0028229D02*
X0120736Y0028229D01*
X0120255Y0029027D02*
X0113332Y0029027D01*
X0112702Y0029826D02*
X0119965Y0029826D01*
X0119965Y0030624D02*
X0111397Y0030624D01*
X0109295Y0030624D02*
X0107924Y0030624D01*
X0107924Y0029826D02*
X0107991Y0029826D01*
X0107924Y0031423D02*
X0120110Y0031423D01*
X0120441Y0032221D02*
X0107821Y0032221D01*
X0107748Y0033020D02*
X0108431Y0033020D01*
X0102055Y0034512D02*
X0100536Y0032994D01*
X0100536Y0032820D01*
X0100099Y0032820D01*
X0100099Y0042616D01*
X0107726Y0042616D01*
X0107726Y0042447D01*
X0107726Y0041712D01*
X0107821Y0041356D01*
X0107926Y0041175D01*
X0107926Y0037602D01*
X0107262Y0038266D01*
X0106019Y0038781D01*
X0104674Y0038781D01*
X0103431Y0038266D01*
X0102480Y0037315D01*
X0101965Y0036073D01*
X0101965Y0034727D01*
X0102055Y0034512D01*
X0102011Y0034617D02*
X0100099Y0034617D01*
X0100099Y0035415D02*
X0101965Y0035415D01*
X0102024Y0036214D02*
X0100099Y0036214D01*
X0100099Y0037012D02*
X0102355Y0037012D01*
X0102976Y0037811D02*
X0100099Y0037811D01*
X0100099Y0038609D02*
X0104260Y0038609D01*
X0106433Y0038609D02*
X0107926Y0038609D01*
X0107926Y0037811D02*
X0107717Y0037811D01*
X0107926Y0039408D02*
X0100099Y0039408D01*
X0100099Y0040206D02*
X0107926Y0040206D01*
X0107926Y0041005D02*
X0100099Y0041005D01*
X0100099Y0041803D02*
X0107726Y0041803D01*
X0107726Y0042447D02*
X0112079Y0042447D01*
X0112079Y0042447D01*
X0107726Y0042447D01*
X0107726Y0042602D02*
X0100099Y0042602D01*
X0096499Y0042602D02*
X0094094Y0042602D01*
X0093296Y0041803D02*
X0096499Y0041803D01*
X0096499Y0041005D02*
X0092497Y0041005D01*
X0091698Y0040206D02*
X0096499Y0040206D01*
X0096499Y0039408D02*
X0093920Y0039408D01*
X0094919Y0038609D02*
X0096499Y0038609D01*
X0096499Y0037811D02*
X0095422Y0037811D01*
X0095728Y0037012D02*
X0096499Y0037012D01*
X0096499Y0036214D02*
X0095728Y0036214D01*
X0095598Y0035415D02*
X0096499Y0035415D01*
X0096499Y0034617D02*
X0095268Y0034617D01*
X0094546Y0033818D02*
X0096499Y0033818D01*
X0096499Y0033020D02*
X0095100Y0033020D01*
X0094362Y0032221D02*
X0094362Y0032221D01*
X0094362Y0031423D02*
X0094362Y0031423D01*
X0094362Y0030624D02*
X0094362Y0030624D01*
X0094362Y0029826D02*
X0094362Y0029826D01*
X0094362Y0029027D02*
X0094362Y0029027D01*
X0094362Y0028229D02*
X0094362Y0028229D01*
X0094362Y0027430D02*
X0094362Y0027430D01*
X0094362Y0026632D02*
X0094362Y0026632D01*
X0094362Y0025833D02*
X0094362Y0025833D01*
X0094362Y0025035D02*
X0094362Y0025035D01*
X0094631Y0024236D02*
X0076746Y0024236D01*
X0076746Y0023438D02*
X0094631Y0023438D01*
X0094631Y0022639D02*
X0076746Y0022639D01*
X0076746Y0021841D02*
X0094631Y0021841D01*
X0094631Y0021042D02*
X0076746Y0021042D01*
X0076746Y0020244D02*
X0094631Y0020244D01*
X0098031Y0023438D02*
X0099720Y0023438D01*
X0098921Y0024236D02*
X0098031Y0024236D01*
X0082952Y0025035D02*
X0076746Y0025035D01*
X0076746Y0025833D02*
X0082769Y0025833D01*
X0082769Y0026632D02*
X0076095Y0026632D01*
X0082769Y0027430D02*
X0056292Y0027430D01*
X0056292Y0026632D02*
X0066598Y0026632D01*
X0065946Y0025833D02*
X0056292Y0025833D01*
X0056292Y0025035D02*
X0065946Y0025035D01*
X0065946Y0024236D02*
X0056292Y0024236D01*
X0055843Y0023438D02*
X0065946Y0023438D01*
X0056292Y0028229D02*
X0082769Y0028229D01*
X0082769Y0029027D02*
X0056292Y0029027D01*
X0056292Y0029826D02*
X0082769Y0029826D01*
X0082769Y0030624D02*
X0056292Y0030624D01*
X0055654Y0031423D02*
X0082769Y0031423D01*
X0082872Y0032221D02*
X0067448Y0032221D01*
X0068246Y0033020D02*
X0074967Y0033020D01*
X0074461Y0033818D02*
X0068606Y0033818D01*
X0068968Y0034617D02*
X0074461Y0034617D01*
X0074377Y0035415D02*
X0069766Y0035415D01*
X0070565Y0036214D02*
X0074261Y0036214D01*
X0082769Y0037811D02*
X0084212Y0037811D01*
X0085010Y0038609D02*
X0082767Y0038609D01*
X0082767Y0039408D02*
X0085809Y0039408D01*
X0086607Y0040206D02*
X0082767Y0040206D01*
X0082767Y0041005D02*
X0087406Y0041005D01*
X0088204Y0041803D02*
X0082767Y0041803D01*
X0082767Y0042602D02*
X0089003Y0042602D01*
X0089801Y0043401D02*
X0082767Y0043401D01*
X0082767Y0044199D02*
X0090600Y0044199D01*
X0091398Y0044998D02*
X0082767Y0044998D01*
X0082767Y0045796D02*
X0091965Y0045796D01*
X0091965Y0046595D02*
X0082767Y0046595D01*
X0082767Y0047393D02*
X0092098Y0047393D01*
X0092429Y0048192D02*
X0082767Y0048192D01*
X0082767Y0048990D02*
X0093155Y0048990D01*
X0096189Y0049789D02*
X0082767Y0049789D01*
X0082767Y0050587D02*
X0096499Y0050587D01*
X0096499Y0051386D02*
X0082767Y0051386D01*
X0082767Y0052184D02*
X0096499Y0052184D01*
X0096499Y0052983D02*
X0082767Y0052983D01*
X0082767Y0053781D02*
X0096499Y0053781D01*
X0096499Y0054580D02*
X0082767Y0054580D01*
X0082767Y0055378D02*
X0096499Y0055378D01*
X0096499Y0056177D02*
X0082767Y0056177D01*
X0082767Y0056975D02*
X0096499Y0056975D01*
X0100099Y0056975D02*
X0107926Y0056975D01*
X0107926Y0056177D02*
X0100099Y0056177D01*
X0100099Y0055378D02*
X0107926Y0055378D01*
X0107926Y0054580D02*
X0100099Y0054580D01*
X0100099Y0053781D02*
X0107926Y0053781D01*
X0107926Y0052983D02*
X0100099Y0052983D01*
X0100099Y0052184D02*
X0107926Y0052184D01*
X0107926Y0051386D02*
X0100099Y0051386D01*
X0100099Y0050587D02*
X0107926Y0050587D01*
X0107926Y0049789D02*
X0100099Y0049789D01*
X0100099Y0048990D02*
X0107926Y0048990D01*
X0107926Y0048192D02*
X0099684Y0048192D01*
X0099045Y0047553D02*
X0099045Y0047553D01*
X0098885Y0047393D02*
X0107926Y0047393D01*
X0107926Y0046595D02*
X0098728Y0046595D01*
X0116231Y0046595D02*
X0121725Y0046595D01*
X0121725Y0047393D02*
X0116231Y0047393D01*
X0116231Y0048192D02*
X0121725Y0048192D01*
X0121725Y0048990D02*
X0116231Y0048990D01*
X0116231Y0049789D02*
X0121725Y0049789D01*
X0122442Y0050587D02*
X0116231Y0050587D01*
X0116231Y0051386D02*
X0121615Y0051386D01*
X0121525Y0052184D02*
X0116231Y0052184D01*
X0116231Y0052983D02*
X0121525Y0052983D01*
X0121525Y0053781D02*
X0116231Y0053781D01*
X0116231Y0054580D02*
X0125478Y0054580D01*
X0125478Y0055378D02*
X0126278Y0055378D01*
X0126278Y0054580D02*
X0130250Y0054580D01*
X0130250Y0054548D02*
X0134202Y0054548D01*
X0134202Y0057989D01*
X0131465Y0057989D01*
X0131109Y0057894D01*
X0130790Y0057709D01*
X0130529Y0057449D01*
X0130345Y0057129D01*
X0130250Y0056773D01*
X0130250Y0054548D01*
X0130230Y0053781D02*
X0134202Y0053781D01*
X0134202Y0054580D02*
X0135002Y0054580D01*
X0135002Y0054548D02*
X0135002Y0057989D01*
X0137740Y0057989D01*
X0138096Y0057894D01*
X0138415Y0057709D01*
X0138675Y0057449D01*
X0138860Y0057129D01*
X0138904Y0056964D01*
X0138963Y0057183D01*
X0139147Y0057503D01*
X0139408Y0057763D01*
X0139727Y0057948D01*
X0140083Y0058043D01*
X0142820Y0058043D01*
X0142820Y0054602D01*
X0138955Y0054602D01*
X0138955Y0054548D01*
X0135002Y0054548D01*
X0135002Y0053781D02*
X0138868Y0053781D01*
X0138955Y0054580D02*
X0142820Y0054580D01*
X0142820Y0055378D02*
X0143620Y0055378D01*
X0143620Y0054602D02*
X0147573Y0054602D01*
X0147573Y0056167D01*
X0148167Y0056167D01*
X0149409Y0056681D01*
X0150214Y0057486D01*
X0151499Y0056202D01*
X0151446Y0056076D01*
X0151446Y0054724D01*
X0151964Y0053474D01*
X0152397Y0053041D01*
X0152050Y0052695D01*
X0151656Y0052105D01*
X0151385Y0051450D01*
X0151246Y0050755D01*
X0151246Y0050500D01*
X0154746Y0050500D01*
X0154746Y0050300D01*
X0151246Y0050300D01*
X0151246Y0050045D01*
X0151385Y0049350D01*
X0151656Y0048695D01*
X0152050Y0048105D01*
X0152255Y0047900D01*
X0152050Y0047695D01*
X0151656Y0047105D01*
X0151385Y0046450D01*
X0151246Y0045755D01*
X0151246Y0045500D01*
X0154746Y0045500D01*
X0154746Y0045300D01*
X0151246Y0045300D01*
X0151246Y0045045D01*
X0151385Y0044350D01*
X0151656Y0043695D01*
X0152050Y0043105D01*
X0152397Y0042759D01*
X0151964Y0042326D01*
X0151446Y0041076D01*
X0151446Y0039724D01*
X0151964Y0038474D01*
X0152538Y0037900D01*
X0151964Y0037326D01*
X0151446Y0036076D01*
X0151446Y0034724D01*
X0151964Y0033474D01*
X0152921Y0032518D01*
X0154080Y0032037D01*
X0153390Y0031348D01*
X0140771Y0031348D01*
X0140971Y0031548D01*
X0146169Y0031548D01*
X0146872Y0032251D01*
X0146872Y0040725D01*
X0146169Y0041428D01*
X0145207Y0041428D01*
X0145207Y0043081D01*
X0146670Y0043081D01*
X0147373Y0043784D01*
X0147373Y0049660D01*
X0146670Y0050363D01*
X0146363Y0050363D01*
X0146714Y0050457D01*
X0147033Y0050641D01*
X0147293Y0050902D01*
X0147478Y0051221D01*
X0147573Y0051577D01*
X0147573Y0053802D01*
X0143620Y0053802D01*
X0143620Y0054602D01*
X0143620Y0054580D02*
X0151506Y0054580D01*
X0151446Y0055378D02*
X0147573Y0055378D01*
X0148191Y0056177D02*
X0151488Y0056177D01*
X0150726Y0056975D02*
X0149703Y0056975D01*
X0147573Y0053781D02*
X0151837Y0053781D01*
X0152338Y0052983D02*
X0147573Y0052983D01*
X0147573Y0052184D02*
X0151709Y0052184D01*
X0151372Y0051386D02*
X0147522Y0051386D01*
X0146940Y0050587D02*
X0151246Y0050587D01*
X0151298Y0049789D02*
X0147244Y0049789D01*
X0147373Y0048990D02*
X0151534Y0048990D01*
X0151992Y0048192D02*
X0147373Y0048192D01*
X0147373Y0047393D02*
X0151849Y0047393D01*
X0151445Y0046595D02*
X0147373Y0046595D01*
X0147373Y0045796D02*
X0151255Y0045796D01*
X0151256Y0044998D02*
X0147373Y0044998D01*
X0147373Y0044199D02*
X0151447Y0044199D01*
X0151853Y0043401D02*
X0146990Y0043401D01*
X0145207Y0042602D02*
X0152240Y0042602D01*
X0151748Y0041803D02*
X0145207Y0041803D01*
X0146592Y0041005D02*
X0151446Y0041005D01*
X0151446Y0040206D02*
X0146872Y0040206D01*
X0146872Y0039408D02*
X0151577Y0039408D01*
X0151908Y0038609D02*
X0146872Y0038609D01*
X0146872Y0037811D02*
X0152449Y0037811D01*
X0151834Y0037012D02*
X0146872Y0037012D01*
X0146872Y0036214D02*
X0151503Y0036214D01*
X0151446Y0035415D02*
X0146872Y0035415D01*
X0146872Y0034617D02*
X0151491Y0034617D01*
X0151821Y0033818D02*
X0146872Y0033818D01*
X0146872Y0033020D02*
X0152418Y0033020D01*
X0153636Y0032221D02*
X0146843Y0032221D01*
X0140846Y0031423D02*
X0153465Y0031423D01*
X0138194Y0027430D02*
X0138109Y0027430D01*
X0138109Y0026632D02*
X0138194Y0026632D01*
X0121681Y0027430D02*
X0121512Y0027430D01*
X0101361Y0033818D02*
X0100099Y0033818D01*
X0100099Y0033020D02*
X0100562Y0033020D01*
X0093624Y0033020D02*
X0093021Y0033020D01*
X0083413Y0037012D02*
X0082967Y0037012D01*
X0074461Y0042602D02*
X0068098Y0042602D01*
X0067227Y0043401D02*
X0074461Y0043401D01*
X0074461Y0044199D02*
X0067927Y0044199D01*
X0068425Y0044998D02*
X0074461Y0044998D01*
X0074461Y0045796D02*
X0068728Y0045796D01*
X0068728Y0046595D02*
X0074461Y0046595D01*
X0074461Y0047393D02*
X0068595Y0047393D01*
X0068264Y0048192D02*
X0074461Y0048192D01*
X0074461Y0048990D02*
X0067538Y0048990D01*
X0063068Y0049789D02*
X0074461Y0049789D01*
X0074461Y0050587D02*
X0061146Y0050587D01*
X0055194Y0048192D02*
X0054267Y0048192D01*
X0054721Y0047393D02*
X0055194Y0047393D01*
X0055194Y0046595D02*
X0054721Y0046595D01*
X0054721Y0045796D02*
X0055194Y0045796D01*
X0055194Y0044998D02*
X0054721Y0044998D01*
X0054721Y0044199D02*
X0055194Y0044199D01*
X0055275Y0043401D02*
X0054721Y0043401D01*
X0054721Y0042602D02*
X0055710Y0042602D01*
X0055058Y0041803D02*
X0054506Y0041803D01*
X0054994Y0041005D02*
X0044276Y0041005D01*
X0044276Y0040206D02*
X0054994Y0040206D01*
X0054994Y0039408D02*
X0044276Y0039408D01*
X0044276Y0038609D02*
X0058946Y0038609D01*
X0058946Y0037811D02*
X0059746Y0037811D01*
X0059746Y0037012D02*
X0058946Y0037012D01*
X0058946Y0036214D02*
X0059746Y0036214D01*
X0059746Y0035415D02*
X0058946Y0035415D01*
X0061867Y0034617D02*
X0054721Y0034617D01*
X0054721Y0035415D02*
X0055497Y0035415D01*
X0055020Y0036214D02*
X0054721Y0036214D01*
X0054721Y0037012D02*
X0054994Y0037012D01*
X0054994Y0037811D02*
X0054411Y0037811D01*
X0048840Y0037811D02*
X0048557Y0037811D01*
X0048557Y0037012D02*
X0048840Y0037012D01*
X0048840Y0036214D02*
X0048557Y0036214D01*
X0048557Y0035415D02*
X0048840Y0035415D01*
X0048840Y0033818D02*
X0048557Y0033818D01*
X0048557Y0033020D02*
X0048840Y0033020D01*
X0048840Y0032221D02*
X0048557Y0032221D01*
X0048557Y0031423D02*
X0048840Y0031423D01*
X0048811Y0030624D02*
X0049010Y0030624D01*
X0049010Y0029826D02*
X0048811Y0029826D01*
X0048811Y0029027D02*
X0049010Y0029027D01*
X0049010Y0028229D02*
X0048811Y0028229D01*
X0048811Y0027430D02*
X0049010Y0027430D01*
X0049010Y0026632D02*
X0048811Y0026632D01*
X0048811Y0025833D02*
X0049010Y0025833D01*
X0049010Y0025035D02*
X0048811Y0025035D01*
X0048811Y0024236D02*
X0049010Y0024236D01*
X0049458Y0023438D02*
X0048363Y0023438D01*
X0041529Y0026632D02*
X0025502Y0026632D01*
X0025699Y0027430D02*
X0041529Y0027430D01*
X0041529Y0028229D02*
X0025699Y0028229D01*
X0025699Y0029027D02*
X0041529Y0029027D01*
X0041529Y0029826D02*
X0025699Y0029826D01*
X0031850Y0035415D02*
X0041356Y0035415D01*
X0040557Y0036214D02*
X0032628Y0036214D01*
X0032959Y0037012D02*
X0040276Y0037012D01*
X0040276Y0037811D02*
X0033081Y0037811D01*
X0036024Y0038609D02*
X0040276Y0038609D01*
X0040276Y0039408D02*
X0040215Y0039408D01*
X0036477Y0039408D02*
X0036329Y0039408D01*
X0047025Y0041803D02*
X0050372Y0041803D01*
X0050156Y0042602D02*
X0047241Y0042602D01*
X0047241Y0043401D02*
X0050156Y0043401D01*
X0050156Y0044199D02*
X0047241Y0044199D01*
X0047623Y0044998D02*
X0050156Y0044998D01*
X0050156Y0045796D02*
X0048421Y0045796D01*
X0049220Y0046595D02*
X0050156Y0046595D01*
X0050156Y0047393D02*
X0050018Y0047393D01*
X0036694Y0054580D02*
X0032630Y0054580D01*
X0032961Y0053781D02*
X0036023Y0053781D01*
X0035052Y0052983D02*
X0033081Y0052983D01*
X0031856Y0055378D02*
X0036694Y0055378D01*
X0036694Y0056177D02*
X0025698Y0056177D01*
X0025699Y0056975D02*
X0036694Y0056975D01*
X0036694Y0057774D02*
X0025699Y0057774D01*
X0025699Y0058572D02*
X0037168Y0058572D01*
X0036755Y0059371D02*
X0025699Y0059371D01*
X0021746Y0059371D02*
X0020946Y0059371D01*
X0020946Y0058572D02*
X0021746Y0058572D01*
X0021746Y0057774D02*
X0020946Y0057774D01*
X0020946Y0056975D02*
X0021746Y0056975D01*
X0021746Y0056177D02*
X0020946Y0056177D01*
X0020946Y0055378D02*
X0021746Y0055378D01*
X0025293Y0055378D02*
X0028160Y0055378D01*
X0025159Y0051442D02*
X0024840Y0051626D01*
X0024484Y0051721D01*
X0021746Y0051721D01*
X0021746Y0045800D01*
X0025699Y0045800D01*
X0025699Y0050506D01*
X0025604Y0050862D01*
X0025419Y0051181D01*
X0025159Y0051442D01*
X0025215Y0051386D02*
X0027301Y0051386D01*
X0027955Y0050587D02*
X0025677Y0050587D01*
X0025699Y0049789D02*
X0028020Y0049789D01*
X0028020Y0048990D02*
X0025699Y0048990D01*
X0025699Y0048192D02*
X0028020Y0048192D01*
X0028020Y0047393D02*
X0025699Y0047393D01*
X0025699Y0046595D02*
X0028020Y0046595D01*
X0021746Y0046595D02*
X0020946Y0046595D01*
X0020946Y0047393D02*
X0021746Y0047393D01*
X0021746Y0048192D02*
X0020946Y0048192D01*
X0020946Y0048990D02*
X0021746Y0048990D01*
X0021746Y0049789D02*
X0020946Y0049789D01*
X0020946Y0050587D02*
X0021746Y0050587D01*
X0021746Y0051386D02*
X0020946Y0051386D01*
X0016994Y0044998D02*
X0016446Y0044998D01*
X0016446Y0044199D02*
X0016994Y0044199D01*
X0016994Y0043401D02*
X0016446Y0043401D01*
X0016446Y0042602D02*
X0016994Y0042602D01*
X0016994Y0041803D02*
X0016446Y0041803D01*
X0016446Y0041005D02*
X0016994Y0041005D01*
X0017017Y0040206D02*
X0016446Y0040206D01*
X0016446Y0039408D02*
X0017485Y0039408D01*
X0020946Y0039408D02*
X0021746Y0039408D01*
X0021746Y0040206D02*
X0020946Y0040206D01*
X0020946Y0041005D02*
X0021746Y0041005D01*
X0021746Y0041803D02*
X0020946Y0041803D01*
X0020946Y0042602D02*
X0021746Y0042602D01*
X0021746Y0043401D02*
X0020946Y0043401D01*
X0020946Y0044199D02*
X0021746Y0044199D01*
X0044999Y0057774D02*
X0045472Y0057774D01*
X0045899Y0058572D02*
X0044525Y0058572D01*
X0044937Y0059371D02*
X0045568Y0059371D01*
X0045272Y0060169D02*
X0045199Y0060169D01*
X0045199Y0060968D02*
X0045272Y0060968D01*
X0045272Y0061766D02*
X0045199Y0061766D01*
X0045199Y0063363D02*
X0045272Y0063363D01*
X0045272Y0064162D02*
X0045199Y0064162D01*
X0045199Y0064960D02*
X0045272Y0064960D01*
X0045419Y0065759D02*
X0045024Y0065759D01*
X0049225Y0065759D02*
X0050025Y0065759D01*
X0050025Y0064960D02*
X0049225Y0064960D01*
X0049225Y0064162D02*
X0050025Y0064162D01*
X0041246Y0064162D02*
X0040446Y0064162D01*
X0040446Y0064960D02*
X0041246Y0064960D01*
X0041246Y0065759D02*
X0040446Y0065759D01*
X0036668Y0065759D02*
X0014746Y0065759D01*
X0014746Y0064960D02*
X0036494Y0064960D01*
X0036494Y0061766D02*
X0025699Y0061766D01*
X0025699Y0060968D02*
X0036494Y0060968D01*
X0036494Y0060169D02*
X0021746Y0060169D01*
X0016994Y0060968D02*
X0014746Y0060968D01*
X0014746Y0061766D02*
X0016994Y0061766D01*
X0016994Y0062565D02*
X0014746Y0062565D01*
X0014746Y0063363D02*
X0016994Y0063363D01*
X0017187Y0064162D02*
X0014746Y0064162D01*
X0022974Y0072147D02*
X0065946Y0072147D01*
X0065946Y0072945D02*
X0024902Y0072945D01*
X0025741Y0073744D02*
X0065946Y0073744D01*
X0066509Y0074542D02*
X0026540Y0074542D01*
X0027007Y0075341D02*
X0091206Y0075341D01*
X0091206Y0075800D02*
X0087765Y0075800D01*
X0087765Y0078537D01*
X0087861Y0078893D01*
X0088045Y0079212D01*
X0088306Y0079473D01*
X0088625Y0079657D01*
X0088981Y0079753D01*
X0091206Y0079753D01*
X0091206Y0075800D01*
X0091206Y0076139D02*
X0092006Y0076139D01*
X0092006Y0076938D02*
X0091206Y0076938D01*
X0091206Y0077737D02*
X0092006Y0077737D01*
X0092006Y0078535D02*
X0091206Y0078535D01*
X0091206Y0079334D02*
X0092006Y0079334D01*
X0088166Y0079334D02*
X0027746Y0079334D01*
X0027746Y0078535D02*
X0087765Y0078535D01*
X0087765Y0077737D02*
X0027746Y0077737D01*
X0027668Y0076938D02*
X0087765Y0076938D01*
X0087765Y0076139D02*
X0027337Y0076139D01*
X0027556Y0080132D02*
X0156137Y0080132D01*
X0155946Y0079334D02*
X0102244Y0079334D01*
X0102728Y0078535D02*
X0155946Y0078535D01*
X0155946Y0077737D02*
X0102728Y0077737D01*
X0102728Y0076938D02*
X0131329Y0076938D01*
X0130784Y0076139D02*
X0102728Y0076139D01*
X0102728Y0075341D02*
X0130784Y0075341D01*
X0130784Y0074542D02*
X0124184Y0074542D01*
X0123926Y0074800D02*
X0114767Y0074800D01*
X0113946Y0073980D01*
X0113946Y0072820D01*
X0113946Y0065980D01*
X0113946Y0064820D01*
X0114767Y0064000D01*
X0123926Y0064000D01*
X0124746Y0064820D01*
X0124746Y0073980D01*
X0123926Y0074800D01*
X0124746Y0073744D02*
X0130784Y0073744D01*
X0130784Y0072945D02*
X0124746Y0072945D01*
X0124746Y0072147D02*
X0130784Y0072147D01*
X0130784Y0071348D02*
X0124746Y0071348D01*
X0124746Y0070550D02*
X0130909Y0070550D01*
X0131444Y0068933D02*
X0131125Y0068749D01*
X0130864Y0068488D01*
X0130680Y0068169D01*
X0130584Y0067813D01*
X0130584Y0065666D01*
X0133946Y0065666D01*
X0133946Y0064866D01*
X0130584Y0064866D01*
X0130584Y0062720D01*
X0130680Y0062364D01*
X0130864Y0062044D01*
X0131125Y0061784D01*
X0131444Y0061599D01*
X0131800Y0061504D01*
X0133946Y0061504D01*
X0133946Y0064866D01*
X0134746Y0064866D01*
X0134746Y0061504D01*
X0136893Y0061504D01*
X0137249Y0061599D01*
X0137568Y0061784D01*
X0137829Y0062044D01*
X0138013Y0062364D01*
X0138109Y0062720D01*
X0138109Y0064866D01*
X0134746Y0064866D01*
X0134746Y0065666D01*
X0133946Y0065666D01*
X0133946Y0069028D01*
X0131800Y0069028D01*
X0131444Y0068933D01*
X0131518Y0068953D02*
X0124746Y0068953D01*
X0124746Y0069751D02*
X0138644Y0069751D01*
X0138549Y0068953D02*
X0137175Y0068953D01*
X0137249Y0068933D02*
X0136893Y0069028D01*
X0134746Y0069028D01*
X0134746Y0065666D01*
X0138109Y0065666D01*
X0138109Y0067813D01*
X0138013Y0068169D01*
X0137829Y0068488D01*
X0137568Y0068749D01*
X0137249Y0068933D01*
X0138017Y0068154D02*
X0138194Y0068154D01*
X0138194Y0067356D02*
X0138109Y0067356D01*
X0138109Y0066557D02*
X0138194Y0066557D01*
X0138194Y0065759D02*
X0138109Y0065759D01*
X0138194Y0064960D02*
X0134746Y0064960D01*
X0134746Y0064162D02*
X0133946Y0064162D01*
X0133946Y0064960D02*
X0124746Y0064960D01*
X0124746Y0065759D02*
X0130584Y0065759D01*
X0130584Y0066557D02*
X0124746Y0066557D01*
X0124746Y0067356D02*
X0130584Y0067356D01*
X0130676Y0068154D02*
X0124746Y0068154D01*
X0124088Y0064162D02*
X0130584Y0064162D01*
X0130584Y0063363D02*
X0107924Y0063363D01*
X0107924Y0062565D02*
X0130626Y0062565D01*
X0131155Y0061766D02*
X0107924Y0061766D01*
X0107924Y0060968D02*
X0144423Y0060968D01*
X0144113Y0060169D02*
X0107924Y0060169D01*
X0107924Y0059371D02*
X0144113Y0059371D01*
X0144239Y0058572D02*
X0107814Y0058572D01*
X0108425Y0057774D02*
X0100099Y0057774D01*
X0107924Y0064162D02*
X0114605Y0064162D01*
X0113946Y0064960D02*
X0107924Y0064960D01*
X0107748Y0065759D02*
X0113946Y0065759D01*
X0113946Y0066557D02*
X0099999Y0066557D01*
X0099999Y0067356D02*
X0113946Y0067356D01*
X0113946Y0068154D02*
X0099999Y0068154D01*
X0099999Y0068953D02*
X0113946Y0068953D01*
X0113946Y0069751D02*
X0099999Y0069751D01*
X0099999Y0070550D02*
X0113946Y0070550D01*
X0113946Y0071348D02*
X0102126Y0071348D01*
X0102728Y0072147D02*
X0113946Y0072147D01*
X0113946Y0072945D02*
X0102728Y0072945D01*
X0102728Y0073744D02*
X0113946Y0073744D01*
X0114509Y0074542D02*
X0102728Y0074542D01*
X0096599Y0070550D02*
X0076746Y0070550D01*
X0076746Y0071348D02*
X0088284Y0071348D01*
X0087796Y0072147D02*
X0076746Y0072147D01*
X0076746Y0072945D02*
X0087765Y0072945D01*
X0087765Y0073744D02*
X0076746Y0073744D01*
X0076184Y0074542D02*
X0087765Y0074542D01*
X0091206Y0074542D02*
X0092006Y0074542D01*
X0092006Y0073744D02*
X0091206Y0073744D01*
X0091206Y0072945D02*
X0092006Y0072945D01*
X0092006Y0072147D02*
X0091206Y0072147D01*
X0091206Y0071348D02*
X0092006Y0071348D01*
X0094928Y0071348D02*
X0096047Y0071348D01*
X0095446Y0072147D02*
X0095416Y0072147D01*
X0096599Y0069751D02*
X0076746Y0069751D01*
X0076746Y0068953D02*
X0096599Y0068953D01*
X0096599Y0068154D02*
X0076746Y0068154D01*
X0076746Y0067356D02*
X0096599Y0067356D01*
X0082769Y0062565D02*
X0059746Y0062565D01*
X0063699Y0061766D02*
X0082769Y0061766D01*
X0082769Y0060968D02*
X0063699Y0060968D01*
X0063673Y0060169D02*
X0082769Y0060169D01*
X0082769Y0059371D02*
X0063198Y0059371D01*
X0063277Y0058572D02*
X0082879Y0058572D01*
X0115733Y0057774D02*
X0121930Y0057774D01*
X0121525Y0056975D02*
X0116231Y0056975D01*
X0116231Y0056177D02*
X0121525Y0056177D01*
X0121525Y0055378D02*
X0116231Y0055378D01*
X0125478Y0056177D02*
X0126278Y0056177D01*
X0126278Y0056975D02*
X0125478Y0056975D01*
X0125478Y0057774D02*
X0126278Y0057774D01*
X0129826Y0057774D02*
X0130902Y0057774D01*
X0130304Y0056975D02*
X0130230Y0056975D01*
X0130230Y0056177D02*
X0130250Y0056177D01*
X0130230Y0055378D02*
X0130250Y0055378D01*
X0130230Y0052983D02*
X0130250Y0052983D01*
X0130230Y0052184D02*
X0130250Y0052184D01*
X0130286Y0051386D02*
X0130140Y0051386D01*
X0130790Y0050587D02*
X0129313Y0050587D01*
X0130030Y0049789D02*
X0130632Y0049789D01*
X0130450Y0048990D02*
X0130030Y0048990D01*
X0130030Y0048192D02*
X0130450Y0048192D01*
X0130450Y0047393D02*
X0130030Y0047393D01*
X0130030Y0046595D02*
X0130450Y0046595D01*
X0130450Y0045796D02*
X0130030Y0045796D01*
X0130030Y0044998D02*
X0130450Y0044998D01*
X0130450Y0044199D02*
X0130030Y0044199D01*
X0129501Y0043401D02*
X0130779Y0043401D01*
X0132358Y0042602D02*
X0124016Y0042602D01*
X0123218Y0041803D02*
X0132358Y0041803D01*
X0130972Y0041005D02*
X0122419Y0041005D01*
X0121621Y0040206D02*
X0130693Y0040206D01*
X0130693Y0039408D02*
X0120822Y0039408D01*
X0116231Y0038609D02*
X0130693Y0038609D01*
X0120805Y0044199D02*
X0116231Y0044199D01*
X0116231Y0044998D02*
X0121603Y0044998D01*
X0121725Y0045796D02*
X0116231Y0045796D01*
X0116373Y0043401D02*
X0120006Y0043401D01*
X0119208Y0042602D02*
X0116431Y0042602D01*
X0134202Y0055378D02*
X0135002Y0055378D01*
X0135002Y0056177D02*
X0134202Y0056177D01*
X0134202Y0056975D02*
X0135002Y0056975D01*
X0135002Y0057774D02*
X0134202Y0057774D01*
X0138303Y0057774D02*
X0139426Y0057774D01*
X0138907Y0056975D02*
X0138901Y0056975D01*
X0142820Y0056975D02*
X0143620Y0056975D01*
X0143620Y0056177D02*
X0142820Y0056177D01*
X0142820Y0057774D02*
X0143620Y0057774D01*
X0144931Y0061766D02*
X0137538Y0061766D01*
X0138067Y0062565D02*
X0138351Y0062565D01*
X0138194Y0063363D02*
X0138109Y0063363D01*
X0138109Y0064162D02*
X0138194Y0064162D01*
X0134746Y0063363D02*
X0133946Y0063363D01*
X0133946Y0062565D02*
X0134746Y0062565D01*
X0134746Y0061766D02*
X0133946Y0061766D01*
X0133946Y0065759D02*
X0134746Y0065759D01*
X0134746Y0066557D02*
X0133946Y0066557D01*
X0133946Y0067356D02*
X0134746Y0067356D01*
X0134746Y0068154D02*
X0133946Y0068154D01*
X0133946Y0068953D02*
X0134746Y0068953D01*
X0137784Y0070550D02*
X0138194Y0070550D01*
X0138194Y0071348D02*
X0137909Y0071348D01*
X0137909Y0075341D02*
X0138194Y0075341D01*
X0138255Y0076139D02*
X0137909Y0076139D01*
X0137364Y0076938D02*
X0156025Y0076938D01*
X0156355Y0076139D02*
X0146438Y0076139D01*
X0146499Y0075341D02*
X0156686Y0075341D01*
X0157153Y0074542D02*
X0146499Y0074542D01*
X0146499Y0073744D02*
X0157952Y0073744D01*
X0158791Y0072945D02*
X0146499Y0072945D01*
X0146499Y0072147D02*
X0160719Y0072147D01*
X0156467Y0080931D02*
X0027226Y0080931D01*
X0026895Y0081729D02*
X0156798Y0081729D01*
X0157423Y0082528D02*
X0026270Y0082528D01*
X0025471Y0083326D02*
X0158222Y0083326D01*
X0159443Y0084125D02*
X0024250Y0084125D01*
X0095046Y0079334D02*
X0095929Y0079334D01*
X0154746Y0050300D02*
X0154946Y0050300D01*
X0154946Y0046800D01*
X0154946Y0045500D01*
X0154746Y0045500D01*
X0154746Y0050300D01*
X0154746Y0049789D02*
X0154946Y0049789D01*
X0154946Y0048990D02*
X0154746Y0048990D01*
X0154746Y0048192D02*
X0154946Y0048192D01*
X0154946Y0047393D02*
X0154746Y0047393D01*
X0154746Y0046595D02*
X0154946Y0046595D01*
X0154946Y0045796D02*
X0154746Y0045796D01*
X0063245Y0032221D02*
X0054721Y0032221D01*
X0054721Y0033020D02*
X0062447Y0033020D01*
X0062087Y0033818D02*
X0054721Y0033818D01*
D22*
X0044958Y0034641D02*
X0042276Y0037324D01*
X0042276Y0047903D01*
X0043213Y0048841D01*
X0043258Y0048841D01*
X0049625Y0055208D01*
X0049577Y0055160D01*
X0040846Y0055160D01*
X0035205Y0050518D01*
X0032075Y0050518D01*
X0031724Y0050518D01*
X0032075Y0040282D02*
X0026465Y0040282D01*
X0026346Y0040400D01*
X0032075Y0040282D02*
X0037957Y0034400D01*
X0038346Y0034400D01*
D23*
X0044958Y0034641D02*
X0044958Y0027548D01*
X0045170Y0027336D01*
X0052439Y0027548D02*
X0052651Y0027336D01*
X0052439Y0027548D02*
X0052439Y0034641D01*
X0044958Y0044878D02*
X0050480Y0050400D01*
X0054346Y0050400D01*
X0059346Y0055400D01*
X0059346Y0055412D01*
X0059346Y0046419D01*
X0059366Y0046400D01*
X0065346Y0046400D01*
X0078614Y0034573D02*
X0083520Y0034573D01*
X0095346Y0046400D01*
X0098299Y0043447D01*
X0098299Y0028668D01*
X0097331Y0044416D02*
X0095346Y0046400D01*
X0098299Y0049353D01*
X0098299Y0062132D01*
X0097331Y0044416D02*
X0112079Y0044416D01*
X0147494Y0059548D02*
X0150699Y0059548D01*
X0154846Y0055400D01*
X0040846Y0055160D02*
X0040846Y0054290D01*
D24*
X0065346Y0046400D03*
X0092346Y0036400D03*
X0105346Y0035400D03*
X0110346Y0027400D03*
X0123346Y0030400D03*
X0095346Y0046400D03*
X0147494Y0059548D03*
D25*
X0149587Y0065660D02*
X0142346Y0065660D01*
X0149587Y0065660D02*
X0159846Y0055400D01*
X0159846Y0050400D02*
X0159846Y0050350D01*
X0163346Y0046850D01*
X0163346Y0033400D01*
X0155087Y0025140D01*
X0142346Y0025140D01*
X0138467Y0031448D02*
X0131354Y0031448D01*
X0128229Y0034573D01*
X0112079Y0034573D01*
X0112079Y0036542D02*
X0134004Y0036542D01*
X0134058Y0036488D01*
X0134058Y0046123D01*
X0134602Y0046668D01*
X0143220Y0046722D02*
X0143507Y0046435D01*
X0143507Y0036488D01*
X0138467Y0031448D01*
X0130609Y0029648D02*
X0154094Y0029648D01*
X0159846Y0035400D01*
X0130609Y0029648D02*
X0129856Y0030400D01*
X0123346Y0030400D01*
X0110346Y0027400D02*
X0110248Y0027400D01*
X0107263Y0024415D01*
X0101147Y0024415D01*
X0100385Y0025176D01*
X0100385Y0028550D01*
X0100268Y0028668D01*
X0102236Y0028668D02*
X0102236Y0032290D01*
X0105346Y0035400D01*
X0112079Y0040479D02*
X0119489Y0040479D01*
X0125878Y0046868D01*
X0098299Y0062132D02*
X0098299Y0074613D01*
X0099087Y0075400D01*
X0134346Y0073534D02*
X0141953Y0073534D01*
X0142346Y0073140D01*
X0078614Y0040479D02*
X0078535Y0040400D01*
X0065379Y0040400D01*
X0070457Y0038510D02*
X0066987Y0035041D01*
X0065346Y0035041D01*
X0070457Y0038510D02*
X0078614Y0038510D01*
X0090425Y0034479D02*
X0092346Y0036400D01*
X0090425Y0034479D02*
X0090425Y0028668D01*
X0096331Y0028668D02*
X0096331Y0018784D01*
X0099079Y0015400D01*
X0096399Y0028599D02*
X0096331Y0028668D01*
X0134346Y0017266D02*
X0141953Y0017266D01*
X0142346Y0017660D01*
X0038346Y0042400D02*
X0035346Y0045400D01*
X0032075Y0045400D01*
X0032075Y0047959D02*
X0038235Y0047959D01*
X0038396Y0048120D01*
D26*
X0038396Y0048120D03*
X0038346Y0042400D03*
X0065379Y0040400D03*
X0065346Y0035041D03*
M02*
