G75*
%MOIN*%
%OFA0B0*%
%FSLAX25Y25*%
%IPPOS*%
%LPD*%
%AMOC8*
5,1,8,0,0,1.08239X$1,22.5*
%
%ADD10C,0.10800*%
%ADD11R,0.06706X0.05682*%
%ADD12R,0.05524X0.05524*%
%ADD13R,0.02965X0.05524*%
%ADD14R,0.05682X0.06706*%
%ADD15R,0.05131X0.08280*%
%ADD16R,0.06706X0.01902*%
%ADD17R,0.01902X0.06706*%
%ADD18C,0.05200*%
%ADD19R,0.06509X0.02375*%
%ADD20C,0.04146*%
%ADD21R,0.06693X0.07874*%
%ADD22R,0.06693X0.10630*%
%ADD23C,0.05359*%
D10*
X0021346Y0012400D03*
X0119346Y0021400D03*
X0162346Y0012400D03*
X0162346Y0078400D03*
X0021346Y0078400D03*
D11*
X0040846Y0062640D03*
X0049625Y0062688D03*
X0059346Y0062892D03*
X0059346Y0055412D03*
X0049625Y0055208D03*
X0040846Y0055160D03*
X0059346Y0046419D03*
X0059346Y0038939D03*
X0125878Y0046868D03*
X0134602Y0046668D03*
X0143220Y0046722D03*
X0143220Y0054202D03*
X0134602Y0054148D03*
X0125878Y0054348D03*
X0142346Y0065660D03*
X0142346Y0073140D03*
X0142346Y0025140D03*
X0142346Y0017660D03*
D12*
X0134346Y0017266D03*
X0134346Y0025534D03*
X0134346Y0065266D03*
X0134346Y0073534D03*
D13*
X0052439Y0044878D03*
X0044958Y0044878D03*
X0044958Y0034641D03*
X0048698Y0034641D03*
X0052439Y0034641D03*
D14*
X0052651Y0027336D03*
X0045170Y0027336D03*
X0091598Y0015400D03*
X0099079Y0015400D03*
X0099087Y0075400D03*
X0091606Y0075400D03*
D15*
X0134058Y0036488D03*
X0143507Y0036488D03*
D16*
X0112079Y0036542D03*
X0112079Y0038510D03*
X0112079Y0040479D03*
X0112079Y0042447D03*
X0112079Y0044416D03*
X0112079Y0046384D03*
X0112079Y0048353D03*
X0112079Y0050321D03*
X0112079Y0052290D03*
X0112079Y0054258D03*
X0112079Y0056227D03*
X0078614Y0056227D03*
X0078614Y0054258D03*
X0078614Y0052290D03*
X0078614Y0050321D03*
X0078614Y0048353D03*
X0078614Y0046384D03*
X0078614Y0044416D03*
X0078614Y0042447D03*
X0078614Y0040479D03*
X0078614Y0038510D03*
X0078614Y0036542D03*
X0078614Y0034573D03*
X0112079Y0034573D03*
D17*
X0106173Y0028668D03*
X0104205Y0028668D03*
X0102236Y0028668D03*
X0100268Y0028668D03*
X0098299Y0028668D03*
X0096331Y0028668D03*
X0094362Y0028668D03*
X0092394Y0028668D03*
X0090425Y0028668D03*
X0088457Y0028668D03*
X0086488Y0028668D03*
X0084520Y0028668D03*
X0084520Y0062132D03*
X0086488Y0062132D03*
X0088457Y0062132D03*
X0090425Y0062132D03*
X0092394Y0062132D03*
X0094362Y0062132D03*
X0096331Y0062132D03*
X0098299Y0062132D03*
X0100268Y0062132D03*
X0102236Y0062132D03*
X0104205Y0062132D03*
X0106173Y0062132D03*
D18*
X0154846Y0055400D03*
X0159846Y0055400D03*
X0159846Y0050400D03*
X0154846Y0050400D03*
X0154846Y0045400D03*
X0159846Y0045400D03*
X0159846Y0040400D03*
X0154846Y0040400D03*
X0154846Y0035400D03*
X0159846Y0035400D03*
D19*
X0032075Y0040282D03*
X0032075Y0042841D03*
X0032075Y0045400D03*
X0032075Y0047959D03*
X0032075Y0050518D03*
D20*
X0030008Y0052880D03*
X0030008Y0037920D03*
D21*
X0021346Y0030896D03*
X0021346Y0059904D03*
D22*
X0021346Y0045400D03*
D23*
X0038346Y0042400D03*
X0038396Y0048120D03*
X0065379Y0040400D03*
X0065346Y0035041D03*
M02*
