%
M48
M72
T01C0.02000
T02C0.02362
T03C0.02559
T04C0.03346
T05C0.10000
%
T01
X154846Y35400
X159846Y35400
X159846Y40400
X154846Y40400
X154846Y45400
X159846Y45400
X159846Y50400
X154846Y50400
X154846Y55400
X159846Y55400
T02
X147494Y59548
X105346Y35400
X92346Y36400
X95346Y46400
X123346Y30400
X110346Y27400
X65346Y46400
T03
X65379Y40400
X65346Y35041
X38346Y42400
X38396Y48120
T04
X30008Y52880
X30008Y37920
T05
X21346Y12400
X119346Y21400
X162346Y12400
X162346Y78400
X21346Y78400
M30
